<svg width="20" height="19" viewBox="0 0 20 19" fill="none" xmlns="http://www.w3.org/2000/svg">
<g id="Group">
<path id="Vector" d="M19.75 9V15C19.8088 15.5067 19.7522 16.02 19.5845 16.5017C19.4168 16.9834 19.1423 17.421 18.7817 17.7816C18.421 18.1423 17.9835 18.4167 17.5018 18.5844C17.0201 18.7521 16.5067 18.8087 16 18.75H4.00004C3.49338 18.8087 2.98 18.7521 2.4983 18.5844C2.0166 18.4167 1.57906 18.1423 1.2184 17.7816C0.857736 17.421 0.583296 16.9834 0.415604 16.5017C0.247913 16.02 0.191312 15.5067 0.250036 15V5C0.191312 4.49334 0.247913 3.97996 0.415604 3.49826C0.583296 3.01657 0.857736 2.57902 1.2184 2.21836C1.57906 1.8577 2.0166 1.58326 2.4983 1.41557C2.98 1.24788 3.49338 1.19128 4.00004 1.25H11C11.1989 1.25 11.3897 1.32902 11.5304 1.46967C11.671 1.61032 11.75 1.80109 11.75 2C11.75 2.19891 11.671 2.38968 11.5304 2.53033C11.3897 2.67098 11.1989 2.75 11 2.75H4.00004C2.42304 2.75 1.75004 3.423 1.75004 5V14.25L4.29004 11.71C4.47884 11.5226 4.73405 11.4175 5.00004 11.4175C5.26602 11.4175 5.52123 11.5226 5.71004 11.71L6.65004 12.65C6.7435 12.7416 6.86916 12.7929 7.00004 12.7929C7.13091 12.7929 7.25657 12.7416 7.35004 12.65L12.29 7.71C12.4788 7.52265 12.734 7.41752 13 7.41752C13.266 7.41752 13.5212 7.52265 13.71 7.71L18.25 12.25V9C18.25 8.80109 18.3291 8.61032 18.4697 8.46967C18.6104 8.32902 18.8011 8.25 19 8.25C19.1989 8.25 19.3897 8.32902 19.5304 8.46967C19.671 8.61032 19.75 8.80109 19.75 9ZM5.99304 5.75C5.66102 5.75093 5.34295 5.88359 5.10868 6.11885C4.8744 6.35411 4.74307 6.67273 4.74354 7.00475C4.744 7.33676 4.87622 7.65501 5.11115 7.88962C5.34608 8.12422 5.66452 8.25599 5.99654 8.25599C6.32855 8.25599 6.64699 8.12422 6.88192 7.88962C7.11685 7.65501 7.24907 7.33676 7.24953 7.00475C7.25 6.67273 7.11867 6.35411 6.8844 6.11885C6.65012 5.88359 6.33205 5.75093 6.00004 5.75H5.99304ZM15 3.75H16.25V5C16.25 5.19891 16.3291 5.38968 16.4697 5.53033C16.6104 5.67098 16.8011 5.75 17 5.75C17.1989 5.75 17.3897 5.67098 17.5304 5.53033C17.671 5.38968 17.75 5.19891 17.75 5V3.75H19C19.1989 3.75 19.3897 3.67098 19.5304 3.53033C19.671 3.38968 19.75 3.19891 19.75 3C19.75 2.80109 19.671 2.61032 19.5304 2.46967C19.3897 2.32902 19.1989 2.25 19 2.25H17.75V1C17.75 0.801088 17.671 0.610322 17.5304 0.46967C17.3897 0.329018 17.1989 0.25 17 0.25C16.8011 0.25 16.6104 0.329018 16.4697 0.46967C16.3291 0.610322 16.25 0.801088 16.25 1V2.25H15C14.8011 2.25 14.6104 2.32902 14.4697 2.46967C14.3291 2.61032 14.25 2.80109 14.25 3C14.25 3.19891 14.3291 3.38968 14.4697 3.53033C14.6104 3.67098 14.8011 3.75 15 3.75Z" fill="#545454"/>
</g>
</svg>
