<svg width="20" height="21" viewBox="0 0 20 21" fill="none" xmlns="http://www.w3.org/2000/svg">
<path d="M6.14101 9.5575C6.18809 9.50917 6.36588 9.3025 6.53149 9.1325C7.50243 8.06333 10.0353 6.31333 11.361 5.77917C11.5623 5.69333 12.0714 5.51167 12.3433 5.5C12.6039 5.5 12.8523 5.56 13.0894 5.68167C13.3849 5.85167 13.6219 6.11917 13.7518 6.435C13.8354 6.65417 13.9653 7.31 13.9653 7.32167C14.0952 8.03917 14.1667 9.205 14.1667 10.4933C14.1667 11.7208 14.0952 12.8392 13.9889 13.5675C13.9767 13.5792 13.8468 14.3942 13.7047 14.6733C13.4441 15.1833 12.9351 15.5 12.3904 15.5H12.3433C11.9885 15.4875 11.2425 15.1708 11.2425 15.1592C9.98822 14.6242 7.5138 12.96 6.51932 11.8542C6.51932 11.8542 6.23924 11.57 6.11747 11.3925C5.9275 11.1375 5.83333 10.8217 5.83333 10.5058C5.83333 10.1533 5.93968 9.825 6.14101 9.5575Z" fill="#8A8A8A"/>
<path d="M6.14101 9.5575C6.18809 9.50917 6.36588 9.3025 6.53149 9.1325C7.50243 8.06333 10.0353 6.31333 11.361 5.77917C11.5623 5.69333 12.0714 5.51167 12.3433 5.5C12.6039 5.5 12.8523 5.56 13.0894 5.68167C13.3849 5.85167 13.6219 6.11917 13.7518 6.435C13.8354 6.65417 13.9653 7.31 13.9653 7.32167C14.0952 8.03917 14.1667 9.205 14.1667 10.4933C14.1667 11.7208 14.0952 12.8392 13.9889 13.5675C13.9767 13.5792 13.8468 14.3942 13.7047 14.6733C13.4441 15.1833 12.9351 15.5 12.3904 15.5H12.3433C11.9885 15.4875 11.2425 15.1708 11.2425 15.1592C9.98822 14.6242 7.5138 12.96 6.51932 11.8542C6.51932 11.8542 6.23924 11.57 6.11747 11.3925C5.9275 11.1375 5.83333 10.8217 5.83333 10.5058C5.83333 10.1533 5.93968 9.825 6.14101 9.5575Z" fill="black" fill-opacity="0.2"/>
<path d="M6.14101 9.5575C6.18809 9.50917 6.36588 9.3025 6.53149 9.1325C7.50243 8.06333 10.0353 6.31333 11.361 5.77917C11.5623 5.69333 12.0714 5.51167 12.3433 5.5C12.6039 5.5 12.8523 5.56 13.0894 5.68167C13.3849 5.85167 13.6219 6.11917 13.7518 6.435C13.8354 6.65417 13.9653 7.31 13.9653 7.32167C14.0952 8.03917 14.1667 9.205 14.1667 10.4933C14.1667 11.7208 14.0952 12.8392 13.9889 13.5675C13.9767 13.5792 13.8468 14.3942 13.7047 14.6733C13.4441 15.1833 12.9351 15.5 12.3904 15.5H12.3433C11.9885 15.4875 11.2425 15.1708 11.2425 15.1592C9.98822 14.6242 7.5138 12.96 6.51932 11.8542C6.51932 11.8542 6.23924 11.57 6.11747 11.3925C5.9275 11.1375 5.83333 10.8217 5.83333 10.5058C5.83333 10.1533 5.93968 9.825 6.14101 9.5575Z" fill="black" fill-opacity="0.2"/>
<path d="M6.14101 9.5575C6.18809 9.50917 6.36588 9.3025 6.53149 9.1325C7.50243 8.06333 10.0353 6.31333 11.361 5.77917C11.5623 5.69333 12.0714 5.51167 12.3433 5.5C12.6039 5.5 12.8523 5.56 13.0894 5.68167C13.3849 5.85167 13.6219 6.11917 13.7518 6.435C13.8354 6.65417 13.9653 7.31 13.9653 7.32167C14.0952 8.03917 14.1667 9.205 14.1667 10.4933C14.1667 11.7208 14.0952 12.8392 13.9889 13.5675C13.9767 13.5792 13.8468 14.3942 13.7047 14.6733C13.4441 15.1833 12.9351 15.5 12.3904 15.5H12.3433C11.9885 15.4875 11.2425 15.1708 11.2425 15.1592C9.98822 14.6242 7.5138 12.96 6.51932 11.8542C6.51932 11.8542 6.23924 11.57 6.11747 11.3925C5.9275 11.1375 5.83333 10.8217 5.83333 10.5058C5.83333 10.1533 5.93968 9.825 6.14101 9.5575Z" fill="black" fill-opacity="0.2"/>
<path d="M6.14101 9.5575C6.18809 9.50917 6.36588 9.3025 6.53149 9.1325C7.50243 8.06333 10.0353 6.31333 11.361 5.77917C11.5623 5.69333 12.0714 5.51167 12.3433 5.5C12.6039 5.5 12.8523 5.56 13.0894 5.68167C13.3849 5.85167 13.6219 6.11917 13.7518 6.435C13.8354 6.65417 13.9653 7.31 13.9653 7.32167C14.0952 8.03917 14.1667 9.205 14.1667 10.4933C14.1667 11.7208 14.0952 12.8392 13.9889 13.5675C13.9767 13.5792 13.8468 14.3942 13.7047 14.6733C13.4441 15.1833 12.9351 15.5 12.3904 15.5H12.3433C11.9885 15.4875 11.2425 15.1708 11.2425 15.1592C9.98822 14.6242 7.5138 12.96 6.51932 11.8542C6.51932 11.8542 6.23924 11.57 6.11747 11.3925C5.9275 11.1375 5.83333 10.8217 5.83333 10.5058C5.83333 10.1533 5.93968 9.825 6.14101 9.5575Z" fill="black" fill-opacity="0.2"/>
</svg>
