<svg width="20" height="21" viewBox="0 0 20 21" fill="none" xmlns="http://www.w3.org/2000/svg">
<path d="M13.859 11.4425C13.8119 11.4908 13.6341 11.6975 13.4685 11.8675C12.4976 12.9367 9.96468 14.6867 8.63898 15.2208C8.43765 15.3067 7.92864 15.4883 7.65668 15.5C7.39608 15.5 7.14767 15.44 6.91061 15.3183C6.61511 15.1483 6.37806 14.8808 6.24817 14.565C6.16455 14.3458 6.03466 13.69 6.03466 13.6783C5.90477 12.9608 5.83333 11.795 5.83333 10.5067C5.83333 9.27917 5.90477 8.16083 6.01112 7.4325C6.02329 7.42083 6.15319 6.60583 6.29525 6.32667C6.55585 5.81667 7.06486 5.5 7.60959 5.5H7.65668C8.01144 5.5125 8.7575 5.82917 8.7575 5.84083C10.0118 6.37583 12.4862 8.04 13.4807 9.14583C13.4807 9.14583 13.7608 9.43 13.8825 9.6075C14.0725 9.8625 14.1667 10.1783 14.1667 10.4942C14.1667 10.8467 14.0603 11.175 13.859 11.4425Z" fill="#333333"/>
</svg>
