<svg width="41" height="40" viewBox="0 0 41 40" fill="none" xmlns="http://www.w3.org/2000/svg">
<path fill-rule="evenodd" clip-rule="evenodd" d="M8.5 10C6.29086 10 4.5 11.7909 4.5 14V30C4.5 32.2091 6.29086 34 8.5 34H32.5C34.7091 34 36.5 32.2091 36.5 30V14C36.5 11.7909 34.7091 10 32.5 10H29.3284C28.798 10 28.2893 9.78929 27.9142 9.41421L25.6716 7.17157C24.9214 6.42143 23.904 6 22.8431 6H18.1569C17.096 6 16.0786 6.42143 15.3284 7.17157L13.0858 9.41421C12.7107 9.78929 12.202 10 11.6716 10H8.5ZM20.5 28C23.8137 28 26.5 25.3137 26.5 22C26.5 18.6863 23.8137 16 20.5 16C17.1863 16 14.5 18.6863 14.5 22C14.5 25.3137 17.1863 28 20.5 28Z" fill="white"/>
</svg>
