<svg width="25" height="24" viewBox="0 0 25 24" fill="none" xmlns="http://www.w3.org/2000/svg">
<path d="M7.10039 15.6C4.78079 15.6 2.90039 13.7196 2.90039 11.4C2.90039 9.22996 4.54615 7.4443 6.65761 7.22307C6.55502 6.8326 6.50039 6.42268 6.50039 6.00001C6.50039 3.34905 8.64942 1.20001 11.3004 1.20001C13.555 1.20001 15.4465 2.75446 15.9618 4.85011C16.2033 4.81708 16.4498 4.80001 16.7004 4.80001C19.6827 4.80001 22.1004 7.21767 22.1004 10.2C22.1004 13.1823 19.6827 15.6 16.7004 15.6H13.7004V11.2971L15.2519 12.8485C15.7205 13.3172 16.4803 13.3172 16.9489 12.8485C17.4175 12.3799 17.4175 11.6201 16.9489 11.1515L13.3489 7.55148C12.8803 7.08285 12.1205 7.08285 11.6519 7.55148L8.05186 11.1515C7.58323 11.6201 7.58323 12.3799 8.05186 12.8485C8.52049 13.3172 9.28029 13.3172 9.74892 12.8485L11.3004 11.2971L11.3004 15.6H7.10039Z" fill="#1E65FF"/>
<path d="M11.3004 15.6H13.7004L13.7004 21.6C13.7004 22.2628 13.1631 22.8 12.5004 22.8C11.8376 22.8 11.3004 22.2628 11.3004 21.6V15.6Z" fill="#1E65FF"/>
</svg>
