<svg width="186" height="180" viewBox="0 0 186 180" fill="none" xmlns="http://www.w3.org/2000/svg">
<path d="M165.967 90.5C165.967 129.436 134.403 161 95.4668 161C56.5307 161 24.9668 129.436 24.9668 90.5C24.9668 51.5639 56.5307 20 95.4668 20C134.403 20 165.967 51.5639 165.967 90.5Z" fill="#90A4AE"/>
<path d="M185.933 27.5C185.933 31.6421 182.575 35 178.433 35C174.291 35 170.933 31.6421 170.933 27.5C170.933 23.3579 174.291 20 178.433 20C182.575 20 185.933 23.3579 185.933 27.5Z" fill="#90A4AE"/>
<path d="M30 10C30 15.5228 25.5228 20 20 20C14.4772 20 10 15.5228 10 10C10 4.47715 14.4772 0 20 0C25.5228 0 30 4.47715 30 10Z" fill="#90A4AE"/>
<path d="M15 133C15 135.761 12.7614 138 10 138C7.23858 138 5 135.761 5 133C5 130.239 7.23858 128 10 128C12.7614 128 15 130.239 15 133Z" fill="#90A4AE"/>
<path d="M168 160.5C168 161.881 166.881 163 165.5 163C164.119 163 163 161.881 163 160.5C163 159.119 164.119 158 165.5 158C166.881 158 168 159.119 168 160.5Z" fill="#90A4AE"/>
<path fill-rule="evenodd" clip-rule="evenodd" d="M106.31 67.8062L106.313 69.649C113.085 70.1798 117.558 74.7942 117.565 81.8707L117.592 102.584C117.602 110.299 112.754 115.046 104.985 115.059L86.0069 115.083C78.286 115.093 73.3783 110.233 73.3686 102.496L73.3419 82.0255C73.3322 74.9023 77.6477 70.3002 84.4195 69.6785L84.4171 67.8357C84.4147 66.7546 85.2156 65.9413 86.2836 65.9413C87.3516 65.9388 88.1525 66.7497 88.155 67.8308L88.1574 69.5508L102.575 69.5311L102.572 67.8111C102.57 66.73 103.371 65.9192 104.439 65.9167C105.483 65.9142 106.308 66.7251 106.31 67.8062ZM77.0822 82.7846L113.83 82.7355V81.8755C113.725 76.5927 111.075 73.8211 106.318 73.4083L106.32 75.3003C106.32 76.3569 105.497 77.1947 104.453 77.1947C103.386 77.1972 102.582 76.3618 102.582 75.3052L102.58 73.315L88.1622 73.3346L88.1647 75.3224C88.1647 76.3814 87.3661 77.2168 86.2982 77.2168C85.2302 77.2193 84.4268 76.3863 84.4268 75.3273L84.4244 73.4354C79.6914 73.9096 77.0725 76.691 77.0797 82.0205L77.0822 82.7846ZM103.432 93.9522V93.9792C103.456 95.1095 104.378 95.967 105.497 95.9425C106.589 95.9154 107.461 94.9793 107.436 93.849C107.386 92.7679 106.509 91.8858 105.42 91.8882C104.303 91.9128 103.429 92.8219 103.432 93.9522ZM105.437 104.985C104.32 104.96 103.42 104.029 103.417 102.899C103.393 101.768 104.288 100.832 105.405 100.805H105.429C106.57 100.805 107.495 101.736 107.495 102.891C107.497 104.046 106.575 104.982 105.437 104.985ZM93.4317 93.9915C93.4802 95.1218 94.405 96.0039 95.5215 95.9547C96.6137 95.9031 97.4851 94.9694 97.4365 93.8392C97.4098 92.7335 96.5118 91.8735 95.4196 91.876C94.3031 91.9251 93.4293 92.8612 93.4317 93.9915ZM95.5312 104.874C94.4147 104.923 93.4924 104.041 93.4414 102.911C93.4414 101.781 94.3128 100.847 95.4293 100.795C96.5215 100.793 97.422 101.653 97.4463 102.756C97.4972 103.889 96.6235 104.822 95.5312 104.874ZM83.4317 94.0775C83.4802 95.2078 84.405 96.0923 85.5215 96.0407C86.6137 95.9916 87.485 95.0554 87.4341 93.9252C87.4098 92.8195 86.5118 91.9595 85.4171 91.9619C84.3006 92.0111 83.4292 92.9472 83.4317 94.0775ZM85.5312 104.886C84.4147 104.938 83.4924 104.053 83.4414 102.923C83.439 101.793 84.3127 100.857 85.4292 100.808C86.5215 100.805 87.422 101.665 87.4462 102.771C87.4972 103.901 86.6258 104.837 85.5312 104.886Z" fill="white"/>
<path d="M109 4.5C109 5.88071 107.881 7 106.5 7C105.119 7 104 5.88071 104 4.5C104 3.11929 105.119 2 106.5 2C107.881 2 109 3.11929 109 4.5Z" fill="#90A4AE"/>
<path d="M66 176.5C66 178.433 64.433 180 62.5 180C60.567 180 59 178.433 59 176.5C59 174.567 60.567 173 62.5 173C64.433 173 66 174.567 66 176.5Z" fill="#90A4AE"/>
<path d="M123 171C123 171.552 122.552 172 122 172C121.448 172 121 171.552 121 171C121 170.448 121.448 170 122 170C122.552 170 123 170.448 123 171Z" fill="#90A4AE"/>
<path d="M173 110.5C173 111.881 171.881 113 170.5 113C169.119 113 168 111.881 168 110.5C168 109.119 169.119 108 170.5 108C171.881 108 173 109.119 173 110.5Z" fill="#90A4AE"/>
<path d="M2 75C2 75.5523 1.55228 76 1 76C0.447715 76 0 75.5523 0 75C0 74.4477 0.447715 74 1 74C1.55228 74 2 74.4477 2 75Z" fill="#90A4AE"/>
</svg>
