<svg width="24" height="24" viewBox="0 0 24 24" fill="none" xmlns="http://www.w3.org/2000/svg">
<path d="M21.3038 7.27508C21.1275 3.22245 16.3362 0.771077 13.1138 3.23258C13.7037 3.3548 14.3106 3.37131 14.9063 3.28133C15.0039 3.2673 15.1031 3.29217 15.1826 3.35058C15.262 3.40899 15.3154 3.49627 15.3311 3.59362C15.3468 3.69097 15.3237 3.7906 15.2667 3.87107C15.2097 3.95153 15.1233 4.00639 15.0263 4.02383C13.9645 4.16381 12.8845 4.04282 11.88 3.67133C11.1315 3.4707 10.6429 3.01133 9.99004 2.68883C9.26826 2.36638 8.48071 2.21839 7.69112 2.25683C6.90153 2.29527 6.13208 2.51905 5.44504 2.91008C2.52229 4.42508 2.01529 8.28158 3.43879 11.1263L8.11129 20.8988C8.40978 21.6098 9.39304 21.9766 10.005 21.6076C10.7374 21.0563 10.7644 20.2013 10.8038 19.3426V16.3538C10.7949 15.8744 10.9409 15.4049 11.22 15.0151C11.2845 14.9102 11.3701 14.82 11.4715 14.7503C11.5729 14.6805 11.6878 14.6328 11.8088 14.6101C12.6724 14.3847 13.2372 15.5858 13.1963 16.4063V19.3426C13.236 20.2062 13.2627 21.0548 13.995 21.6076C14.166 21.6859 14.3509 21.7296 14.5389 21.7362C14.7268 21.7427 14.9143 21.712 15.0903 21.6458C15.2664 21.5795 15.4276 21.4791 15.5646 21.3503C15.7016 21.2214 15.8118 21.0667 15.8888 20.8951L20.5613 11.1263C21.1469 9.93147 21.4032 8.60202 21.3038 7.27508ZM6.13129 4.83383C5.36037 5.36611 4.82863 6.17919 4.65003 7.09883C4.62915 7.19629 4.5704 7.28147 4.48671 7.33562C4.40302 7.38977 4.30125 7.40846 4.20379 7.38758C4.10632 7.36669 4.02114 7.30794 3.96699 7.22425C3.91284 7.14057 3.89415 7.03879 3.91504 6.94133C4.13852 5.83835 4.77763 4.86356 5.70004 4.21883C5.78168 4.1653 5.88095 4.14565 5.97682 4.16404C6.0727 4.18242 6.15766 4.2374 6.2137 4.31733C6.26975 4.39726 6.29249 4.49587 6.27711 4.59227C6.26173 4.68868 6.20943 4.77531 6.13129 4.83383Z" fill="#333333"/>
</svg>
