<svg width="26" height="26" viewBox="0 0 26 26" fill="none" xmlns="http://www.w3.org/2000/svg">
<path d="M9.75033 5.41667H7.58366C6.38704 5.41667 5.41699 6.38672 5.41699 7.58333V20.5833C5.41699 21.78 6.38704 22.75 7.58366 22.75H18.417C19.6136 22.75 20.5837 21.78 20.5837 20.5833V7.58333C20.5837 6.38672 19.6136 5.41667 18.417 5.41667H16.2503M9.75033 5.41667C9.75033 6.61328 10.7204 7.58333 11.917 7.58333H14.0837C15.2803 7.58333 16.2503 6.61328 16.2503 5.41667M9.75033 5.41667C9.75033 4.22005 10.7204 3.25 11.917 3.25H14.0837C15.2803 3.25 16.2503 4.22005 16.2503 5.41667M13.0003 13H16.2503M13.0003 17.3333H16.2503M9.75033 13H9.76116M9.75033 17.3333H9.76116" stroke="#8A8A8A" stroke-width="2" stroke-linecap="round"/>
<path d="M9.75033 5.41667H7.58366C6.38704 5.41667 5.41699 6.38672 5.41699 7.58333V20.5833C5.41699 21.78 6.38704 22.75 7.58366 22.75H18.417C19.6136 22.75 20.5837 21.78 20.5837 20.5833V7.58333C20.5837 6.38672 19.6136 5.41667 18.417 5.41667H16.2503M9.75033 5.41667C9.75033 6.61328 10.7204 7.58333 11.917 7.58333H14.0837C15.2803 7.58333 16.2503 6.61328 16.2503 5.41667M9.75033 5.41667C9.75033 4.22005 10.7204 3.25 11.917 3.25H14.0837C15.2803 3.25 16.2503 4.22005 16.2503 5.41667M13.0003 13H16.2503M13.0003 17.3333H16.2503M9.75033 13H9.76116M9.75033 17.3333H9.76116" stroke="black" stroke-opacity="0.2" stroke-width="2" stroke-linecap="round"/>
<path d="M9.75033 5.41667H7.58366C6.38704 5.41667 5.41699 6.38672 5.41699 7.58333V20.5833C5.41699 21.78 6.38704 22.75 7.58366 22.75H18.417C19.6136 22.75 20.5837 21.78 20.5837 20.5833V7.58333C20.5837 6.38672 19.6136 5.41667 18.417 5.41667H16.2503M9.75033 5.41667C9.75033 6.61328 10.7204 7.58333 11.917 7.58333H14.0837C15.2803 7.58333 16.2503 6.61328 16.2503 5.41667M9.75033 5.41667C9.75033 4.22005 10.7204 3.25 11.917 3.25H14.0837C15.2803 3.25 16.2503 4.22005 16.2503 5.41667M13.0003 13H16.2503M13.0003 17.3333H16.2503M9.75033 13H9.76116M9.75033 17.3333H9.76116" stroke="black" stroke-opacity="0.2" stroke-width="2" stroke-linecap="round"/>
<path d="M9.75033 5.41667H7.58366C6.38704 5.41667 5.41699 6.38672 5.41699 7.58333V20.5833C5.41699 21.78 6.38704 22.75 7.58366 22.75H18.417C19.6136 22.75 20.5837 21.78 20.5837 20.5833V7.58333C20.5837 6.38672 19.6136 5.41667 18.417 5.41667H16.2503M9.75033 5.41667C9.75033 6.61328 10.7204 7.58333 11.917 7.58333H14.0837C15.2803 7.58333 16.2503 6.61328 16.2503 5.41667M9.75033 5.41667C9.75033 4.22005 10.7204 3.25 11.917 3.25H14.0837C15.2803 3.25 16.2503 4.22005 16.2503 5.41667M13.0003 13H16.2503M13.0003 17.3333H16.2503M9.75033 13H9.76116M9.75033 17.3333H9.76116" stroke="black" stroke-opacity="0.2" stroke-width="2" stroke-linecap="round"/>
<path d="M9.75033 5.41667H7.58366C6.38704 5.41667 5.41699 6.38672 5.41699 7.58333V20.5833C5.41699 21.78 6.38704 22.75 7.58366 22.75H18.417C19.6136 22.75 20.5837 21.78 20.5837 20.5833V7.58333C20.5837 6.38672 19.6136 5.41667 18.417 5.41667H16.2503M9.75033 5.41667C9.75033 6.61328 10.7204 7.58333 11.917 7.58333H14.0837C15.2803 7.58333 16.2503 6.61328 16.2503 5.41667M9.75033 5.41667C9.75033 4.22005 10.7204 3.25 11.917 3.25H14.0837C15.2803 3.25 16.2503 4.22005 16.2503 5.41667M13.0003 13H16.2503M13.0003 17.3333H16.2503M9.75033 13H9.76116M9.75033 17.3333H9.76116" stroke="black" stroke-opacity="0.2" stroke-width="2" stroke-linecap="round"/>
</svg>
