<svg width="33" height="32" viewBox="0 0 33 32" fill="none" xmlns="http://www.w3.org/2000/svg">
<path d="M16.6495 16.1495C19.9393 16.1495 22.6308 13.109 22.6308 9.42056C22.6308 5.73209 19.9393 2.69159 16.6495 2.69159C13.3598 2.69159 10.6682 5.73209 10.6682 9.42056C10.6682 13.109 13.3598 16.1495 16.6495 16.1495ZM16.6495 3.68847C19.391 3.68847 21.634 6.28037 21.634 9.42056C21.634 12.5607 19.391 15.1526 16.6495 15.1526C13.9081 15.1526 11.6651 12.5607 11.6651 9.42056C11.6651 6.28037 13.9081 3.68847 16.6495 3.68847ZM22.9798 18.3427C22.8302 18.243 20.8863 17.5452 19.0919 17.296C18.9922 17.296 18.8427 17.296 18.743 17.3956L16.6495 18.9907L14.5561 17.3956C14.5062 17.3458 14.4564 17.3458 14.4065 17.296H14.2072C12.4626 17.5452 10.6682 18.1433 10.3193 18.3427C3.29128 21.2835 3.19159 29.0093 3.19159 29.109C3.19159 29.4081 3.39097 29.6075 3.69003 29.6075H29.609C29.9081 29.6075 30.1075 29.4081 30.1075 29.109C30.1075 29.0093 30.0078 21.2835 22.9798 18.3427ZM22.6308 22.6293C23.1791 22.6293 23.6277 23.0779 23.6277 23.6262C23.6277 24.1745 23.1791 24.6231 22.6308 24.6231C22.0826 24.6231 21.634 24.1745 21.634 23.6262C21.634 23.0779 22.0826 22.6293 22.6308 22.6293ZM5.43458 24.1745C6.48131 22.0312 8.07632 20.486 10.1698 19.4891V21.7321C8.22586 22.081 7.67757 24.3738 7.67757 25.6698C7.67757 25.9688 7.87695 26.1682 8.17601 26.1682H9.1729C9.47196 26.1682 9.67134 25.9688 9.67134 25.6698C9.67134 25.3707 9.47196 25.1713 9.1729 25.1713H8.7243C8.82399 24.324 9.22274 22.6791 10.6682 22.6791C12.1137 22.6791 12.5125 24.324 12.6122 25.1713H12.1636C11.8645 25.1713 11.6651 25.3707 11.6651 25.6698C11.6651 25.9688 11.8645 26.1682 12.1636 26.1682H13.1604C13.4595 26.1682 13.6589 25.9688 13.6589 25.6698C13.6589 24.3738 13.1106 22.081 11.1667 21.7321V19.0903C12.0639 18.7414 13.0607 18.4922 14.1075 18.3925L16.1511 19.9377V28.6106H4.23832C4.28816 27.7632 4.53738 26.0187 5.43458 24.1745ZM17.148 28.6106V19.8879L19.1916 18.3427C20.2882 18.4922 21.285 18.7414 22.1324 19.0903V21.7321C21.285 21.9315 20.6371 22.729 20.6371 23.676C20.6371 24.7726 21.5343 25.6698 22.6308 25.6698C23.7274 25.6698 24.6246 24.7726 24.6246 23.676C24.6246 22.729 23.9766 21.9813 23.1293 21.7321V19.4891C28.1636 21.8816 28.9611 26.9657 29.1106 28.6106H17.148Z" fill="#3C4549"/>
</svg>
