<svg width="19" height="18" viewBox="0 0 19 18" fill="none" xmlns="http://www.w3.org/2000/svg">
<path d="M8.08985 6.67586C8.22916 6.58298 8.40126 6.49996 8.59981 6.43571L8.59981 7.9639C8.40126 7.89965 8.22916 7.81663 8.08985 7.72375C7.76215 7.50529 7.6998 7.30232 7.6998 7.1998C7.6998 7.09729 7.76215 6.89432 8.08985 6.67586Z" fill="#545454"/>
<path d="M10.3998 11.5639L10.3998 10.0357C10.5984 10.1 10.7705 10.183 10.9098 10.2759C11.2375 10.4943 11.2998 10.6973 11.2998 10.7998C11.2998 10.9023 11.2375 11.1053 10.9098 11.3238C10.7705 11.4166 10.5984 11.4996 10.3998 11.5639Z" fill="#545454"/>
<path fill-rule="evenodd" clip-rule="evenodd" d="M9.4998 16.1998C13.4763 16.1998 16.6998 12.9763 16.6998 8.9998C16.6998 5.02335 13.4763 1.7998 9.4998 1.7998C5.52335 1.7998 2.2998 5.02335 2.2998 8.9998C2.2998 12.9763 5.52335 16.1998 9.4998 16.1998ZM10.3998 4.4998C10.3998 4.00275 9.99686 3.5998 9.4998 3.5998C9.00275 3.5998 8.5998 4.00275 8.5998 4.4998V4.5826C8.04037 4.68766 7.52293 4.89047 7.09139 5.17817C6.44188 5.61117 5.8998 6.3082 5.8998 7.1998C5.8998 8.09141 6.44188 8.78844 7.09139 9.22144C7.52294 9.50914 8.04037 9.71195 8.59982 9.81701L8.59982 11.5641C8.24792 11.4499 7.98706 11.2785 7.84081 11.11C7.51505 10.7345 6.94662 10.6943 6.5712 11.02C6.19577 11.3458 6.1555 11.9142 6.48126 12.2896C6.9875 12.8731 7.75341 13.2576 8.59981 13.4167L8.5998 13.4998C8.59979 13.9968 9.00273 14.3998 9.49979 14.3998C9.99684 14.3998 10.3998 13.9969 10.3998 13.4998L10.3998 13.417C10.9593 13.312 11.4767 13.1091 11.9082 12.8214C12.5578 12.3884 13.0998 11.6914 13.0998 10.7998C13.0998 9.9082 12.5577 9.21117 11.9082 8.77817C11.4767 8.49047 10.9592 8.28766 10.3998 8.1826L10.3998 6.43548C10.7517 6.54974 11.0126 6.72109 11.1588 6.88964C11.4846 7.26507 12.053 7.30534 12.4284 6.97958C12.8039 6.65382 12.8441 6.08539 12.5184 5.70997C12.0121 5.12653 11.2462 4.74204 10.3998 4.58293V4.4998Z" fill="#545454"/>
</svg>
