<svg width="25" height="16" viewBox="0 0 25 16" fill="none" xmlns="http://www.w3.org/2000/svg">
<g id="Group">
<path id="Vector" d="M12.6666 4.13745C10.5356 4.13745 8.8042 5.86886 8.8042 7.99983C8.8042 10.1308 10.5356 11.8622 12.6666 11.8622C14.7975 11.8622 16.5289 10.1308 16.5289 7.99983C16.5289 5.86886 14.7975 4.13745 12.6666 4.13745ZM12.3736 6.85443C11.8941 6.85443 11.4945 7.25399 11.4945 7.73346H10.216C10.2426 6.53479 11.2015 5.57585 12.3736 5.57585V6.85443Z" fill="#333333"/>
<path id="Vector_2" d="M24.3869 7.20078C23.0817 5.57592 18.4202 0.275146 12.6666 0.275146C6.91302 0.275146 2.25153 5.57592 0.946315 7.20078C0.573396 7.65361 0.573396 8.31954 0.946315 8.79901C2.25153 10.4239 6.91302 15.7246 12.6666 15.7246C18.4202 15.7246 23.0817 10.4239 24.3869 8.79901C24.7599 8.34618 24.7599 7.68025 24.3869 7.20078ZM12.6666 13.5937C9.57673 13.5937 7.07284 11.0898 7.07284 7.9999C7.07284 4.91 9.57673 2.40611 12.6666 2.40611C15.7565 2.40611 18.2604 4.91 18.2604 7.9999C18.2604 11.0898 15.7565 13.5937 12.6666 13.5937Z" fill="#333333"/>
</g>
</svg>
