<svg width="16" height="16" viewBox="0 0 16 16" fill="none" xmlns="http://www.w3.org/2000/svg">
<path d="M8.23566 3.18879L3.286 8.13879C2.72348 8.70139 2.40747 9.46438 2.40747 10.26C2.40747 11.0555 2.72348 11.8185 3.286 12.3811C3.56457 12.6597 3.89529 12.8807 4.25927 13.0315C4.62325 13.1822 5.01336 13.2598 5.40733 13.2598C5.8013 13.2598 6.19141 13.1822 6.55539 13.0315C6.91937 12.8807 7.25009 12.6597 7.52866 12.3811L13.4213 6.48879C13.6071 6.30307 13.7544 6.08258 13.855 5.8399C13.9555 5.59723 14.0072 5.33713 14.0072 5.07446C14.0072 4.81179 13.9555 4.55169 13.855 4.30901C13.7544 4.06634 13.6071 3.84585 13.4213 3.66013C13.2356 3.47437 13.0151 3.32702 12.7724 3.22649C12.5298 3.12596 12.2697 3.07422 12.007 3.07422C11.7443 3.07422 11.4842 3.12596 11.2416 3.22649C10.9989 3.32702 10.7784 3.47437 10.5927 3.66013L4.70033 9.55279C4.60745 9.64565 4.53378 9.7559 4.48351 9.87724C4.43325 9.99857 4.40738 10.1286 4.40738 10.26C4.40738 10.3913 4.43325 10.5213 4.48351 10.6427C4.53378 10.764 4.60745 10.8743 4.70033 10.9671C4.88786 11.1546 5.14217 11.2599 5.40733 11.2599C5.67249 11.2599 5.9268 11.1546 6.11433 10.9671L11.0643 6.01712" stroke="#545454" stroke-linecap="round" stroke-linejoin="round"/>
</svg>
