<svg width="24" height="19" viewBox="0 0 24 19" fill="none" xmlns="http://www.w3.org/2000/svg">
<g id="Group">
<path id="Vector" d="M8.57175 8.99999C9.41952 8.99999 10.2483 8.74859 10.9531 8.27758C11.658 7.80656 12.2074 7.1371 12.5318 6.35385C12.8562 5.57059 12.941 4.70873 12.7756 3.87726C12.6101 3.04579 12.2018 2.28205 11.6023 1.68264C11.0028 1.08323 10.239 0.675061 9.4075 0.50976C8.576 0.344459 7.71415 0.429447 6.93095 0.753979C6.14776 1.07851 5.47839 1.62801 5.0075 2.33297C4.53661 3.03794 4.28535 3.86672 4.2855 4.71449C4.28669 5.85084 4.73868 6.9403 5.54227 7.74375C6.34587 8.5472 7.4354 8.999 8.57175 8.99999ZM14.1788 12.5407C13.0926 11.4267 11.699 10.6617 10.176 10.3435C8.65303 10.0252 7.06973 10.1682 5.62839 10.7542C4.18705 11.3401 2.95309 12.3425 2.08414 13.6331C1.21519 14.9237 0.750703 16.4441 0.75 18C0.75 18.1989 0.829018 18.3897 0.96967 18.5303C1.11032 18.671 1.30109 18.75 1.5 18.75H15.645C15.8439 18.75 16.0347 18.671 16.1753 18.5303C16.316 18.3897 16.395 18.1989 16.395 18C16.3979 17.2047 16.2751 16.414 16.0312 15.657C15.6681 14.4867 15.0333 13.4189 14.1788 12.5407Z" fill="#333333"/>
<path id="Vector_2" d="M17.625 9.375C19.3854 9.375 20.8125 7.94791 20.8125 6.1875C20.8125 4.42709 19.3854 3 17.625 3C15.8646 3 14.4375 4.42709 14.4375 6.1875C14.4375 7.94791 15.8646 9.375 17.625 9.375Z" fill="#333333"/>
<path id="Vector_3" d="M17.625 10.2524C16.6197 10.2562 15.6338 10.53 14.7705 11.0452C14.9333 11.1907 15.0975 11.3339 15.2513 11.4914C16.2725 12.5411 17.0311 13.8173 17.4653 15.2159C17.6139 15.6764 17.7236 16.1486 17.793 16.6274H22.5C22.6989 16.6274 22.8897 16.5484 23.0303 16.4078C23.171 16.2671 23.25 16.0764 23.25 15.8774C23.2484 14.3861 22.6553 12.9563 21.6007 11.9017C20.5462 10.8472 19.1164 10.254 17.625 10.2524Z" fill="#333333"/>
</g>
</svg>
