<svg width="72" height="72" viewBox="0 0 72 72" fill="none" xmlns="http://www.w3.org/2000/svg">
<g id="Frame">
<g id="Group">
<path id="Vector" d="M58.2471 9.1755V6.0765H61.9296C62.1396 6.0765 62.3091 5.907 62.3091 5.697V0.3795C62.3091 0.27885 62.2692 0.182323 62.198 0.111153C62.1268 0.0399829 62.0303 0 61.9296 0L10.6656 0C10.565 0 10.4685 0.0399829 10.3973 0.111153C10.3261 0.182323 10.2861 0.27885 10.2861 0.3795V5.697C10.2861 5.907 10.4556 6.0765 10.6656 6.0765H14.3481V9.1755C14.3481 19.3455 19.1796 28.6125 26.6841 32.8875C27.1971 33.555 28.4061 35.316 28.2351 36.9375C28.1571 37.6725 27.7896 38.3055 27.1116 38.8725C19.3521 43.032 14.3481 52.413 14.3481 62.8245V65.9235H10.6656C10.6159 65.9233 10.5666 65.9329 10.5205 65.9518C10.4745 65.9707 10.4326 65.9986 10.3974 66.0337C10.3621 66.0688 10.3341 66.1105 10.315 66.1565C10.296 66.2025 10.2861 66.2517 10.2861 66.3015V71.6205C10.2861 71.8305 10.4556 72 10.6656 72H61.9296C62.1396 72 62.3091 71.8305 62.3091 71.6205V66.3015C62.3091 66.2517 62.2993 66.2025 62.2802 66.1565C62.2611 66.1105 62.2332 66.0688 62.1979 66.0337C62.1626 65.9986 62.1208 65.9707 62.0748 65.9518C62.0287 65.9329 61.9794 65.9233 61.9296 65.9235H58.2471V62.8245C58.2471 52.416 53.2431 43.0335 45.4821 38.871C44.8056 38.304 44.4381 37.671 44.3601 36.9375C44.1906 35.322 45.3996 33.555 45.9141 32.886C53.4171 28.6125 58.2471 19.3485 58.2471 9.1755ZM41.3451 37.2555C41.5131 38.853 42.3066 40.224 43.7001 41.331C43.7736 41.388 43.8531 41.4405 43.9341 41.484C50.7861 45.09 55.2141 53.466 55.2141 62.826V64.7895H17.3811V62.826C17.3811 53.4675 21.8076 45.0915 28.6596 41.4855C28.7423 41.4428 28.8202 41.3915 28.8921 41.3325C30.2886 40.2285 31.0821 38.856 31.2501 37.2555C31.5546 34.359 29.6736 31.7355 28.8501 30.7425C28.7287 30.5946 28.58 30.4714 28.4121 30.3795C21.7086 26.7015 17.3811 18.3795 17.3811 9.1755V7.2135H55.2156V9.177C55.2156 18.3825 50.8866 26.7045 44.1861 30.3795C44.0197 30.4728 43.8713 30.5953 43.7481 30.741C42.9231 31.7385 41.0406 34.3665 41.3451 37.2555Z" fill="#FFAB40"/>
<path id="Vector_2" d="M48.1142 18.603C48.1424 18.5359 48.1509 18.4622 48.1387 18.3904C48.1265 18.3187 48.0941 18.2519 48.0452 18.198C47.996 18.1442 47.9323 18.1059 47.8617 18.0878C47.7911 18.0697 47.7167 18.0725 47.6477 18.096L28.8467 24.201C28.7192 24.24 28.6232 24.3465 28.5932 24.477C28.5632 24.6075 28.6052 24.7455 28.7027 24.8355C29.4844 25.5922 30.3607 26.2446 31.3097 26.7765L32.4182 27.387L33.1862 28.3125C34.4582 29.8455 35.3822 31.464 35.9357 33.117C35.9609 33.1925 36.0092 33.2582 36.0739 33.3048C36.1385 33.3513 36.2161 33.3764 36.2957 33.3764C36.3754 33.3764 36.453 33.3513 36.5176 33.3048C36.5822 33.2582 36.6305 33.1925 36.6557 33.117C37.2092 31.4625 38.1347 29.844 39.4112 28.3065L40.1777 27.384L41.2847 26.7765C44.0642 25.2525 46.5527 22.2735 48.1142 18.603ZM40.5827 44.8545L40.0667 44.4465C38.4452 43.1655 37.2962 41.628 36.6512 39.8805C36.5432 39.585 36.0512 39.585 35.9417 39.8805C35.2967 41.625 34.1477 43.1625 32.5232 44.4495L32.0672 44.82L31.4732 45.132C26.9552 47.511 23.5472 53.361 22.7912 60.039C22.7856 60.0919 22.7911 60.1455 22.8074 60.1962C22.8237 60.2469 22.8504 60.2936 22.8859 60.3333C22.9214 60.373 22.9648 60.4049 23.0133 60.4268C23.0619 60.4487 23.1145 60.4602 23.1677 60.4605H49.4282C49.4816 60.4606 49.5344 60.4495 49.5832 60.4277C49.632 60.406 49.6756 60.3741 49.7111 60.3343C49.7467 60.2945 49.7735 60.2476 49.7896 60.1967C49.8057 60.1458 49.8109 60.092 49.8047 60.039C49.0472 53.3565 45.6377 47.5065 41.1212 45.1305L40.5827 44.8545Z" fill="#FFAB40"/>
</g>
</g>
</svg>
