<svg width="22" height="24" viewBox="0 0 22 24" fill="none" xmlns="http://www.w3.org/2000/svg">
<path d="M15.5225 10.3125C15.5225 9.79472 15.1027 9.375 14.585 9.375H4.92871C4.41093 9.375 3.99121 9.79472 3.99121 10.3125C3.99121 10.8303 4.41093 11.25 4.92871 11.25H14.585C15.1027 11.25 15.5225 10.8303 15.5225 10.3125ZM4.92871 13.125C4.41093 13.125 3.99121 13.5447 3.99121 14.0625C3.99121 14.5803 4.41093 15 4.92871 15H10.7933C11.3111 15 11.7308 14.5803 11.7308 14.0625C11.7308 13.5447 11.3111 13.125 10.7933 13.125H4.92871Z" fill="#333333"/>
<path d="M7.13152 22.125H3.99609C2.96222 22.125 2.12109 21.2839 2.12109 20.25V3.75C2.12109 2.71613 2.96222 1.875 3.99609 1.875H15.5221C16.556 1.875 17.3971 2.71613 17.3971 3.75V9.51562C17.3971 10.0334 17.8169 10.4531 18.3346 10.4531C18.8524 10.4531 19.2721 10.0334 19.2721 9.51562V3.75C19.2721 1.68225 17.5899 0 15.5221 0H3.99609C1.92834 0 0.246094 1.68225 0.246094 3.75V20.25C0.246094 22.3177 1.92834 24 3.99609 24H7.13152C7.6493 24 8.06902 23.5803 8.06902 23.0625C8.06902 22.5447 7.6493 22.125 7.13152 22.125Z" fill="#333333"/>
<path d="M20.933 13.5737C19.8364 12.4771 18.0522 12.477 16.9563 13.5729L11.8093 18.7086C11.7 18.8176 11.6193 18.952 11.5744 19.0997L10.4535 22.79C10.4047 22.9506 10.3999 23.1214 10.4397 23.2845C10.4794 23.4476 10.5623 23.597 10.6795 23.7171C10.7967 23.8373 10.9441 23.9238 11.1061 23.9675C11.2682 24.0113 11.439 24.0107 11.6008 23.9659L15.3848 22.9177C15.5405 22.8746 15.6825 22.792 15.7968 22.6778L20.9331 17.5512C22.0296 16.4546 22.0296 14.6704 20.933 13.5737ZM14.6467 21.1766L12.743 21.704L13.3001 19.8698L16.773 16.4046L18.0991 17.7307L14.6467 21.1766ZM19.6079 16.2248L19.4263 16.4061L18.1004 15.0802L18.2814 14.8996C18.647 14.5341 19.2417 14.5341 19.6072 14.8996C19.9728 15.2651 19.9728 15.8599 19.6079 16.2248ZM14.585 5.625H4.92871C4.41093 5.625 3.99121 6.04472 3.99121 6.5625C3.99121 7.08028 4.41093 7.5 4.92871 7.5H14.585C15.1027 7.5 15.5225 7.08028 15.5225 6.5625C15.5225 6.04472 15.1027 5.625 14.585 5.625Z" fill="#333333"/>
</svg>
