<svg width="25" height="24" viewBox="0 0 25 24" fill="none" xmlns="http://www.w3.org/2000/svg">
<g id="Group">
<path id="Vector" d="M10.8231 4.74904C10.7156 4.76304 10.6171 4.81904 10.5536 4.90704C10.2561 5.31853 10.0761 5.80752 10.0081 6.30701C9.98011 6.50951 9.80321 6.65401 9.59912 6.65051C9.37447 6.64666 9.17638 6.43136 9.21663 6.19252C9.37962 5.01354 10.0646 3.88406 11.1731 3.39007C11.3746 3.30007 11.4651 3.06357 11.3751 2.86158C11.2851 2.66008 11.0486 2.56908 10.8471 2.65908C10.4031 2.85708 10.0036 3.14107 9.66212 3.49157C9.47812 1.8651 8.09665 0.59612 6.42318 0.58912C5.74919 0.58662 5.1837 1.14111 5.1837 1.8151C5.1837 3.50377 6.47558 4.92624 8.17264 5.07554C8.41564 5.09704 8.58464 5.32803 8.52514 5.56453C8.49739 5.73112 8.32014 5.89252 8.10115 5.87352C7.16441 5.79167 6.31648 5.39133 5.66869 4.78204C5.62955 4.7452 5.58339 4.71661 5.53297 4.69797C5.48255 4.67933 5.42889 4.67102 5.3752 4.67354C2.6087 4.79764 0.986629 6.36806 0.487289 9.01446C-0.0182019 11.6859 0.763634 14.9822 2.21426 17.1438C3.30094 18.7625 4.78201 19.8373 6.71807 19.552C6.85697 19.5315 6.97342 19.4371 7.02677 19.3072C8.48859 15.7487 10.7506 12.5452 13.6345 9.96844C14.5466 9.15101 15.6083 8.72182 16.7316 8.69817C16.9982 8.69257 17.1809 8.43007 17.101 8.17563C16.1896 5.27068 13.7942 4.361 10.8231 4.74904ZM4.65171 8.16498C3.38923 9.19846 3.34374 11.4824 3.85873 13.2869C3.91922 13.4994 3.79623 13.7204 3.58373 13.7814C3.37278 13.842 3.15064 13.7197 3.08924 13.5064C2.52 11.51 2.5454 8.85542 4.14472 7.54599C4.31572 7.40599 4.56771 7.43099 4.70771 7.60199C4.84771 7.77298 4.82221 8.02498 4.65171 8.16498Z" fill="#333333"/>
<path id="Vector_2" d="M23.9369 11.5388C22.9784 11.5308 22.1009 11.7073 21.2629 12.0793C21.1534 11.9248 21.0364 11.7748 20.9139 11.6298C21.2124 11.1748 21.4114 10.6849 21.5079 10.1699C21.5489 9.95287 21.4054 9.74387 21.1884 9.70338C20.9714 9.66288 20.7624 9.80537 20.7219 10.0229C20.6559 10.3739 20.5294 10.7114 20.3434 11.0314C18.5952 9.40418 16.3754 8.91989 14.4266 10.3653C14.2079 10.5275 14.2101 10.856 14.4324 11.0133C15.0342 11.4392 15.6347 11.9107 16.1821 12.433C16.4441 12.683 16.2636 13.1224 15.906 13.1224C15.8031 13.1225 15.7042 13.0829 15.6299 13.0118C15.0273 12.4367 14.3494 11.9219 13.6775 11.4624C13.5182 11.3535 13.3043 11.3743 13.1677 11.5108C12.741 11.9369 12.33 12.3784 11.9355 12.8345C11.7846 13.009 11.8118 13.2759 11.9962 13.4145C12.6933 13.9382 13.3382 14.528 13.9219 15.1756C14.0569 15.3252 14.0697 15.5532 13.9402 15.7075C13.9035 15.7516 13.8577 15.7874 13.806 15.8123C13.7543 15.8372 13.6978 15.8506 13.6404 15.8518C13.583 15.8529 13.5261 15.8417 13.4734 15.8189C13.4207 15.796 13.3736 15.7622 13.3352 15.7195C12.7708 15.0923 12.1456 14.5227 11.4687 14.019C11.2928 13.8881 11.0438 13.926 10.9116 14.1009C10.5158 14.625 10.141 15.1647 9.78802 15.7185C9.67932 15.8891 9.71467 16.1126 9.86942 16.2427C10.1075 16.4429 10.337 16.653 10.5576 16.8724C10.7028 17.0169 10.7299 17.2494 10.6043 17.4113C10.4539 17.6052 10.1731 17.6189 10.0046 17.4507C9.8613 17.3074 9.71371 17.1685 9.56197 17.0342C9.36998 16.8645 9.06928 16.9167 8.94624 17.1415C8.24624 18.4198 7.6613 19.7577 7.19832 21.1396C6.79458 22.3455 7.78381 23.552 9.04778 23.397C10.3308 23.2348 11.5989 22.9717 12.8406 22.6101C13.0683 22.5438 13.1904 22.2944 13.0999 22.0752C12.7535 21.2358 12.3273 20.4315 11.8271 19.6736C11.7976 19.6298 11.777 19.5805 11.7665 19.5286C11.7561 19.4768 11.7561 19.4234 11.7664 19.3716C11.7768 19.3197 11.7973 19.2704 11.8269 19.2265C11.8564 19.1827 11.8943 19.1451 11.9384 19.116C11.9826 19.0869 12.0321 19.0668 12.084 19.0569C12.136 19.047 12.1893 19.0476 12.2411 19.0584C12.2928 19.0693 12.3419 19.0904 12.3855 19.1204C12.429 19.1503 12.4662 19.1887 12.4949 19.2331C13.0441 20.0655 13.509 20.9507 13.8824 21.8754C13.9634 22.0759 14.1878 22.177 14.391 22.1031C15.7671 21.6024 17.0961 20.9807 18.3625 20.2455C18.4451 20.1976 18.5079 20.122 18.5397 20.0321C18.5716 19.9421 18.5704 19.8438 18.5364 19.7547C18.1012 18.6146 17.5579 17.5188 16.9137 16.4822C16.798 16.2959 16.8389 16.0446 17.0214 15.9229C17.066 15.8931 17.1161 15.8726 17.1688 15.8625C17.2215 15.8525 17.2756 15.8532 17.328 15.8645C17.3805 15.8758 17.4301 15.8975 17.4739 15.9283C17.5178 15.9592 17.555 15.9985 17.5833 16.0441C18.2039 17.0408 18.7353 18.0904 19.1711 19.1806C19.2659 19.4177 19.5542 19.5094 19.766 19.3669C20.1118 19.1342 20.4516 18.8927 20.7851 18.6427C22.7159 17.1931 22.8327 14.84 21.6941 12.7643C22.3951 12.4713 23.1311 12.3356 23.9301 12.3388C24.16 12.3398 24.3316 12.1568 24.3335 11.9423C24.3344 11.8362 24.2931 11.7341 24.2187 11.6585C24.1444 11.5828 24.043 11.5398 23.9369 11.5388ZM15.1158 19.4392C14.9211 19.5452 14.6785 19.4725 14.5732 19.2792C14.4379 19.031 14.2955 18.7867 14.1461 18.5467C14.0914 18.4567 14.0744 18.3487 14.0988 18.2462C14.1232 18.1437 14.187 18.0549 14.2765 17.9992C14.3659 17.9436 14.4737 17.9254 14.5765 17.9487C14.6792 17.972 14.7686 18.035 14.8253 18.1238C14.9829 18.377 15.1331 18.6347 15.2758 18.8967C15.3265 18.9898 15.3381 19.0993 15.3081 19.201C15.2781 19.3028 15.209 19.3885 15.1158 19.4392Z" fill="#333333"/>
</g>
</svg>
