<svg width="19" height="18" viewBox="0 0 19 18" fill="none" xmlns="http://www.w3.org/2000/svg">
<path d="M8.64396 3.53399C8.91338 2.70481 10.0864 2.70481 10.3559 3.53399L11.3185 6.49661C11.439 6.86743 11.7845 7.1185 12.1744 7.1185H15.2895C16.1614 7.1185 16.5239 8.23415 15.8185 8.74661L13.2984 10.5776C12.9829 10.8068 12.8509 11.213 12.9714 11.5838L13.934 14.5465C14.2034 15.3756 13.2544 16.0651 12.5491 15.5527L10.0289 13.7217C9.71348 13.4925 9.28634 13.4925 8.97091 13.7217L6.45075 15.5527C5.74541 16.0651 4.79638 15.3756 5.0658 14.5465L6.02841 11.5838C6.1489 11.213 6.0169 10.8068 5.70146 10.5776L3.18131 8.74661C2.47597 8.23415 2.83847 7.1185 3.71032 7.1185H6.8254C7.2153 7.1185 7.56086 6.86743 7.68135 6.49661L8.64396 3.53399Z" fill="#545454"/>
</svg>
