<svg width="19" height="18" viewBox="0 0 19 18" fill="none" xmlns="http://www.w3.org/2000/svg">
<path d="M11.75 3V1.5M11.75 3V4.5M11.75 3H8.375M2.75 7.5V14.25C2.75 15.0784 3.42157 15.75 4.25 15.75H14.75C15.5784 15.75 16.25 15.0784 16.25 14.25V7.5H2.75Z" stroke="#8A8A8A" stroke-width="1.5" stroke-linecap="round" stroke-linejoin="round"/>
<path d="M11.75 3V1.5M11.75 3V4.5M11.75 3H8.375M2.75 7.5V14.25C2.75 15.0784 3.42157 15.75 4.25 15.75H14.75C15.5784 15.75 16.25 15.0784 16.25 14.25V7.5H2.75Z" stroke="black" stroke-opacity="0.2" stroke-width="1.5" stroke-linecap="round" stroke-linejoin="round"/>
<path d="M11.75 3V1.5M11.75 3V4.5M11.75 3H8.375M2.75 7.5V14.25C2.75 15.0784 3.42157 15.75 4.25 15.75H14.75C15.5784 15.75 16.25 15.0784 16.25 14.25V7.5H2.75Z" stroke="black" stroke-opacity="0.2" stroke-width="1.5" stroke-linecap="round" stroke-linejoin="round"/>
<path d="M11.75 3V1.5M11.75 3V4.5M11.75 3H8.375M2.75 7.5V14.25C2.75 15.0784 3.42157 15.75 4.25 15.75H14.75C15.5784 15.75 16.25 15.0784 16.25 14.25V7.5H2.75Z" stroke="black" stroke-opacity="0.2" stroke-width="1.5" stroke-linecap="round" stroke-linejoin="round"/>
<path d="M11.75 3V1.5M11.75 3V4.5M11.75 3H8.375M2.75 7.5V14.25C2.75 15.0784 3.42157 15.75 4.25 15.75H14.75C15.5784 15.75 16.25 15.0784 16.25 14.25V7.5H2.75Z" stroke="black" stroke-opacity="0.2" stroke-width="1.5" stroke-linecap="round" stroke-linejoin="round"/>
<path d="M2.75 7.5V4.5C2.75 3.67157 3.42157 3 4.25 3H5.75" stroke="#8A8A8A" stroke-width="1.5" stroke-linecap="round" stroke-linejoin="round"/>
<path d="M2.75 7.5V4.5C2.75 3.67157 3.42157 3 4.25 3H5.75" stroke="black" stroke-opacity="0.2" stroke-width="1.5" stroke-linecap="round" stroke-linejoin="round"/>
<path d="M2.75 7.5V4.5C2.75 3.67157 3.42157 3 4.25 3H5.75" stroke="black" stroke-opacity="0.2" stroke-width="1.5" stroke-linecap="round" stroke-linejoin="round"/>
<path d="M2.75 7.5V4.5C2.75 3.67157 3.42157 3 4.25 3H5.75" stroke="black" stroke-opacity="0.2" stroke-width="1.5" stroke-linecap="round" stroke-linejoin="round"/>
<path d="M2.75 7.5V4.5C2.75 3.67157 3.42157 3 4.25 3H5.75" stroke="black" stroke-opacity="0.2" stroke-width="1.5" stroke-linecap="round" stroke-linejoin="round"/>
<path d="M5.75 1.5V4.5" stroke="#8A8A8A" stroke-width="1.5" stroke-linecap="round" stroke-linejoin="round"/>
<path d="M5.75 1.5V4.5" stroke="black" stroke-opacity="0.2" stroke-width="1.5" stroke-linecap="round" stroke-linejoin="round"/>
<path d="M5.75 1.5V4.5" stroke="black" stroke-opacity="0.2" stroke-width="1.5" stroke-linecap="round" stroke-linejoin="round"/>
<path d="M5.75 1.5V4.5" stroke="black" stroke-opacity="0.2" stroke-width="1.5" stroke-linecap="round" stroke-linejoin="round"/>
<path d="M5.75 1.5V4.5" stroke="black" stroke-opacity="0.2" stroke-width="1.5" stroke-linecap="round" stroke-linejoin="round"/>
<path d="M16.25 7.5V4.5C16.25 3.67157 15.5784 3 14.75 3H14.375" stroke="#8A8A8A" stroke-width="1.5" stroke-linecap="round" stroke-linejoin="round"/>
<path d="M16.25 7.5V4.5C16.25 3.67157 15.5784 3 14.75 3H14.375" stroke="black" stroke-opacity="0.2" stroke-width="1.5" stroke-linecap="round" stroke-linejoin="round"/>
<path d="M16.25 7.5V4.5C16.25 3.67157 15.5784 3 14.75 3H14.375" stroke="black" stroke-opacity="0.2" stroke-width="1.5" stroke-linecap="round" stroke-linejoin="round"/>
<path d="M16.25 7.5V4.5C16.25 3.67157 15.5784 3 14.75 3H14.375" stroke="black" stroke-opacity="0.2" stroke-width="1.5" stroke-linecap="round" stroke-linejoin="round"/>
<path d="M16.25 7.5V4.5C16.25 3.67157 15.5784 3 14.75 3H14.375" stroke="black" stroke-opacity="0.2" stroke-width="1.5" stroke-linecap="round" stroke-linejoin="round"/>
</svg>
