<svg width="19" height="18" viewBox="0 0 19 18" fill="none" xmlns="http://www.w3.org/2000/svg">
<path fill-rule="evenodd" clip-rule="evenodd" d="M10.8403 2.85365C10.4992 1.44852 8.50081 1.44852 8.15969 2.85365C7.93933 3.76135 6.89939 4.1921 6.10174 3.70608C4.86695 2.95372 3.4539 4.36677 4.20627 5.60155C4.69229 6.39921 4.26153 7.43915 3.35383 7.65951C1.9487 8.00063 1.94871 9.99898 3.35384 10.3401C4.26153 10.5605 4.69229 11.6004 4.20627 12.3981C3.4539 13.6328 4.86695 15.0459 6.10174 14.2935C6.89939 13.8075 7.93933 14.2383 8.15969 15.146C8.50081 16.5511 10.4992 16.5511 10.8403 15.146C11.0606 14.2383 12.1006 13.8075 12.8982 14.2935C14.133 15.0459 15.5461 13.6328 14.7937 12.3981C14.3077 11.6004 14.7384 10.5605 15.6461 10.3401C17.0513 9.99898 17.0513 8.00063 15.6461 7.65951C14.7384 7.43915 14.3077 6.39921 14.7937 5.60155C15.5461 4.36677 14.133 2.95372 12.8982 3.70608C12.1006 4.19211 11.0606 3.76135 10.8403 2.85365ZM9.49999 11.6998C10.9912 11.6998 12.2 10.491 12.2 8.9998C12.2 7.50864 10.9912 6.2998 9.49999 6.2998C8.00882 6.2998 6.79999 7.50864 6.79999 8.9998C6.79999 10.491 8.00882 11.6998 9.49999 11.6998Z" fill="#545454"/>
</svg>
