<svg width="19" height="19" viewBox="0 0 19 19" fill="none" xmlns="http://www.w3.org/2000/svg">
<path fill-rule="evenodd" clip-rule="evenodd" d="M5.14354 6.46875H3.38774C2.97965 6.46875 2.64845 6.80475 2.64845 7.21875V10.7813C2.64845 11.1953 2.97965 11.5313 3.38774 11.5313H5.14354L8.08516 14.0595C8.56569 14.4728 9.30202 14.1263 9.30202 13.4873V4.51275C9.30202 3.87375 8.56496 3.52725 8.08516 3.9405L5.14354 6.46875Z" stroke="white" stroke-width="1.5" stroke-linecap="round" stroke-linejoin="round"/>
<path d="M12.2865 11.9835C13.1456 11.442 13.7377 10.3155 13.7377 9.00375C13.7377 7.692 13.1456 6.56475 12.2865 6.0165" stroke="white" stroke-width="1.5" stroke-linecap="round" stroke-linejoin="round"/>
<path d="M14.4807 14.2988C15.8173 13.1325 16.6949 11.1975 16.6949 9.00225C16.6949 6.804 15.8159 4.8675 14.477 3.702" stroke="white" stroke-width="1.5" stroke-linecap="round" stroke-linejoin="round"/>
<path d="M17.8002 1L1.07211 17.9706" stroke="white" stroke-linecap="round"/>
</svg>
