<svg width="25" height="24" viewBox="0 0 25 24" fill="none" xmlns="http://www.w3.org/2000/svg">
<g id="Group">
<path id="Vector" d="M8.86709 0.766875L9.12204 3.57178C9.275 5.25464 10.0131 6.83061 11.208 8.02547L11.2081 8.02561V8.55314L11.8375 8.49394C13.6666 8.28047 15.3743 8.56252 16.9132 9.33202C19.3213 10.5361 21.5196 9.56639 22.6157 8.88127C22.6243 8.87592 22.6329 8.87077 22.6417 8.8658L23.4558 8.40431C22.9355 7.2743 22.1947 6.24605 21.2619 5.37966C19.4795 3.72422 17.1575 2.8125 14.7237 2.8125C14.3249 2.8125 13.9278 2.83716 13.5347 2.88572L12.819 0.501047C12.7755 0.356216 12.6866 0.229249 12.5653 0.13899C12.444 0.0487304 12.2968 -1.08103e-05 12.1456 1.79841e-09L9.5674 1.79841e-09C9.4697 1.37733e-06 9.37308 0.0203651 9.28369 0.0597923C9.1943 0.0992195 9.11411 0.156844 9.04824 0.228991C8.98236 0.301138 8.93225 0.386223 8.90109 0.478818C8.86993 0.571414 8.85842 0.669487 8.86728 0.766781L8.86709 0.766875Z" fill="#333333"/>
<path id="Vector_2" d="M24.3037 11.6613C24.303 11.653 24.3022 11.6447 24.3013 11.6364C24.2492 10.9938 24.1325 10.3582 23.9529 9.73901L23.3481 10.0819C22.7285 10.4676 21.7403 10.9702 20.5292 11.1931C20.1071 11.2708 19.6885 11.3096 19.2748 11.3096C18.2442 11.3096 17.2426 11.069 16.2843 10.5899C14.9923 9.9439 13.5486 9.70901 11.9932 9.89164C11.9879 9.89229 11.9825 9.89286 11.977 9.89337L11.2081 9.9657V10.0998C11.2081 12.0396 9.62109 13.591 7.68126 13.5939C3.62841 13.5999 0.333374 16.8989 0.333374 20.9532V23.2969C0.333374 23.6852 0.648186 24 1.0365 24H3.6143C4.00261 24 4.31742 23.6852 4.31742 23.2969V20.8904C4.31742 19.721 5.25591 18.7578 6.42525 18.7502C7.1588 18.7454 7.86183 19.0326 8.38851 19.5425C9.1972 20.3254 10.1541 20.9401 11.2326 21.3696C12.335 21.8086 13.5097 22.0313 14.7238 22.0313C16.086 22.0313 17.4028 21.7518 18.6375 21.2006C19.8298 20.6683 20.8859 19.9107 21.7764 18.9488C22.6653 17.9888 23.338 16.8801 23.7759 15.6538C24.2319 14.3766 24.4095 13.0333 24.3037 11.6613ZM10.9738 17.6953C10.5855 17.6953 10.2707 17.3805 10.2707 16.9922C10.2707 16.6039 10.5855 16.2891 10.9738 16.2891C11.3621 16.2891 11.6769 16.6039 11.6769 16.9922C11.6769 17.3805 11.3621 17.6953 10.9738 17.6953ZM14.2551 19.5703C13.8667 19.5703 13.5519 19.2555 13.5519 18.8672C13.5519 18.4789 13.8667 18.1641 14.2551 18.1641C14.6434 18.1641 14.9582 18.4789 14.9582 18.8672C14.9582 19.2555 14.6434 19.5703 14.2551 19.5703ZM14.2551 13.9453C13.8667 13.9453 13.5519 13.6305 13.5519 13.2422C13.5519 12.8539 13.8667 12.5391 14.2551 12.5391C14.6434 12.5391 14.9582 12.8539 14.9582 13.2422C14.9582 13.6305 14.6434 13.9453 14.2551 13.9453ZM16.8332 13.2422C16.8332 12.8539 17.148 12.5391 17.5363 12.5391C17.9246 12.5391 18.2394 12.8539 18.2394 13.2422C18.2394 13.6305 17.9246 13.9453 17.5363 13.9453C17.148 13.9453 16.8332 13.6305 16.8332 13.2422ZM18.0051 17.6953C17.6167 17.6953 17.3019 17.3805 17.3019 16.9922C17.3019 16.6039 17.6167 16.2891 18.0051 16.2891C18.3934 16.2891 18.7082 16.6039 18.7082 16.9922C18.7082 17.3805 18.3934 17.6953 18.0051 17.6953ZM20.8176 14.4141C20.4292 14.4141 20.1144 14.0993 20.1144 13.711C20.1144 13.3227 20.4292 13.0078 20.8176 13.0078C21.2059 13.0078 21.5207 13.3227 21.5207 13.711C21.5207 14.0993 21.2059 14.4141 20.8176 14.4141Z" fill="#333333"/>
</g>
</svg>
