<svg width="18" height="18" viewBox="0 0 18 18" fill="none" xmlns="http://www.w3.org/2000/svg">
<path d="M16.9285 0.038671C16.8211 0.0984366 0.107427 17.0578 0.0485156 17.1633C0.0207924 17.216 0 17.3426 0 17.4445C0 17.7855 0.21139 18 0.547533 18C0.64803 18 0.772785 17.9789 0.824766 17.9508C0.876747 17.9227 1.6426 17.1633 2.52974 16.2633L4.14115 14.625H8.0432C11.5017 14.625 11.966 14.618 12.1324 14.5687C12.6453 14.4176 13.0819 13.9781 13.2413 13.4613C13.2967 13.2785 13.3071 13.1344 13.3071 12.4418C13.3071 11.9988 13.3141 11.6367 13.3245 11.6367C13.3349 11.6367 14.17 12.0551 15.1785 12.5684C16.8834 13.4332 17.029 13.5 17.1953 13.5C17.4136 13.5 17.5731 13.4156 17.6735 13.2469C17.7429 13.1344 17.7429 13.0605 17.7429 9C17.7429 4.93945 17.7429 4.86562 17.6735 4.75312C17.5731 4.58437 17.4136 4.5 17.1953 4.5C17.029 4.5 16.8834 4.5668 15.1785 5.43164C14.17 5.94492 13.3349 6.36328 13.3245 6.36328C13.3141 6.36328 13.3071 6.13125 13.3071 5.84297V5.32617L15.4765 3.12891C16.6686 1.91953 17.6666 0.889452 17.6943 0.836718C17.7221 0.783983 17.7429 0.657421 17.7429 0.555468C17.7429 0.210936 17.5315 0 17.1884 0C17.0844 0 16.9666 0.0175773 16.9285 0.038671ZM16.6339 9C16.6339 10.6418 16.627 11.9883 16.6166 11.9883C16.6062 11.9883 15.8577 11.6121 14.9532 11.1551L13.3071 10.3184V9V7.68164L14.9463 6.84844C15.8438 6.39141 16.5923 6.01523 16.6097 6.01523C16.6235 6.01172 16.6339 7.35469 16.6339 9ZM12.1809 12.927C12.1566 13.1449 12.0527 13.3102 11.8863 13.4086C11.765 13.4824 11.7235 13.4824 8.50756 13.493L5.25008 13.5L8.71548 9.98438L12.1809 6.46875L12.1913 9.60469C12.1982 11.3309 12.1913 12.825 12.1809 12.927Z" fill="white"/>
<path d="M1.13665 3.4418C0.634168 3.60703 0.204459 4.05351 0.0554464 4.5668C0.0069308 4.73906 0 5.27695 0 9.50625C0 14.182 0 14.2559 0.069308 14.3719C0.270301 14.7059 0.817835 14.7199 1.02922 14.3895C1.08814 14.298 1.0916 14.0484 1.10893 9.61523C1.12626 5.02031 1.12626 4.93594 1.19556 4.81992C1.28566 4.66523 1.41042 4.57383 1.58022 4.53515C1.65646 4.51406 3.75996 4.5 6.51495 4.5C11.2071 4.5 11.318 4.49648 11.415 4.42969C11.7581 4.20117 11.7581 3.67383 11.415 3.44531C11.318 3.37851 11.2071 3.375 6.32436 3.37851C1.58369 3.37851 1.32378 3.38203 1.13665 3.4418Z" fill="white"/>
</svg>
