<svg width="23" height="24" viewBox="0 0 23 24" fill="none" xmlns="http://www.w3.org/2000/svg">
<g id="Group">
<path id="Vector" d="M6.09545 12.5687C7.03074 13.5011 8.69168 13.3638 9.79709 12.2627C9.91745 12.1409 10.0293 12.01 10.1289 11.8748C10.5287 11.3325 11.0082 10.8538 11.5512 10.4549C11.6843 10.3563 11.8102 10.2483 11.9278 10.1316C13.029 9.0269 13.1645 7.36596 12.2289 6.43031C11.9289 6.13502 11.5488 5.93436 11.1358 5.85325C9.35945 5.49643 7.64168 4.52902 6.16886 3.0562L4.23721 1.12384C4.08298 0.96996 3.87827 0.885254 3.66051 0.885254C3.44274 0.885254 3.23804 0.96996 3.08415 1.12384L0.788624 3.41937C0.634388 3.57325 0.549683 3.77796 0.549683 3.99572C0.549683 4.21349 0.634388 4.4182 0.788624 4.57208L2.72062 6.50443C4.17686 7.96067 5.14568 9.68443 5.52192 11.4887C5.60315 11.8971 5.80258 12.2726 6.09545 12.5687ZM22.5446 19.4358L20.6126 17.5035C19.156 16.0469 18.1872 14.3235 17.8113 12.5193C17.73 12.1109 17.5306 11.7353 17.2378 11.4393C16.3022 10.5068 14.6412 10.6437 13.5362 11.7453C13.4162 11.867 13.3039 11.9976 13.2044 12.1335C12.8045 12.6758 12.325 13.1545 11.782 13.5534C11.6488 13.6518 11.5228 13.7598 11.4051 13.8763C10.3039 14.981 10.1687 16.642 11.1044 17.5776C11.4044 17.8727 11.7845 18.0734 12.1974 18.1547C13.9738 18.5115 15.6916 19.4789 17.1644 20.9517L19.0964 22.8841C19.4042 23.1918 19.9413 23.1918 20.2494 22.8841L22.5446 20.5889C22.6989 20.435 22.7836 20.23 22.7836 20.0122C22.7836 19.7944 22.6989 19.5897 22.5446 19.4358ZM12.177 10.3815C12.046 10.5114 11.9063 10.6314 11.7605 10.7387C11.2462 11.1164 10.792 11.5698 10.4133 12.0834C10.3039 12.2327 10.1804 12.377 10.047 12.5115C9.76462 12.7931 9.44804 13.0144 9.11627 13.181L10.4885 14.5533C10.6547 14.2229 10.8757 13.9074 11.1563 13.6264C11.2876 13.4962 11.4273 13.3765 11.5727 13.2693C12.0871 12.8916 12.5413 12.4382 12.9199 11.9245C13.0293 11.7749 13.1529 11.6309 13.2859 11.4961C13.5683 11.2151 13.8842 10.9938 14.2152 10.8273L12.8437 9.45608C12.6719 9.798 12.447 10.1104 12.177 10.3815ZM15.286 7.71361C15.286 7.72878 15.2896 7.74361 15.2903 7.75843C15.3009 7.9402 15.3725 8.11914 15.5112 8.25784C15.5384 8.28467 15.5684 8.30655 15.598 8.32843C15.7296 8.429 15.8906 8.48334 16.0562 8.48302C16.1712 8.48302 16.2849 8.45478 16.3904 8.40361C16.4688 8.3672 16.5404 8.31767 16.6022 8.25714L16.9014 7.95714L17.9659 6.89267C18.1113 6.74725 18.1918 6.55384 18.1918 6.34772C18.1918 6.14161 18.1113 5.9489 17.9659 5.80314C17.8975 5.73569 17.8164 5.68244 17.7273 5.64643C17.5362 5.56704 17.3217 5.56451 17.1287 5.63937C17.0342 5.67586 16.9482 5.73163 16.8764 5.80314L15.9898 6.68972L15.5119 7.1662C15.49 7.18843 15.4731 7.21349 15.4547 7.23749C15.3465 7.37238 15.287 7.53993 15.286 7.7129V7.71361ZM13.2969 5.89772C13.3145 5.96297 13.3408 6.02554 13.3752 6.08372C13.4045 6.13314 13.4384 6.17972 13.4793 6.22208C13.4843 6.22737 13.4871 6.23373 13.492 6.23867C13.5203 6.2669 13.5527 6.28914 13.5845 6.31208C13.6233 6.34067 13.6646 6.36502 13.7087 6.38514C13.7349 6.39784 13.7589 6.41302 13.7864 6.42219C13.8693 6.45078 13.9533 6.46455 14.0359 6.46455C14.1033 6.46455 14.1686 6.45043 14.2325 6.43349C14.355 6.40259 14.4679 6.34185 14.5612 6.25667C14.6545 6.1715 14.7253 6.06455 14.7672 5.94537L15.1918 4.70231L15.3923 4.1182C15.4292 4.01013 15.4417 3.89521 15.4288 3.78174C15.4159 3.66827 15.378 3.55907 15.3178 3.46202C15.2576 3.36498 15.1766 3.28251 15.0806 3.22057C14.9847 3.15863 14.8762 3.11876 14.763 3.10384C14.6132 3.08469 14.461 3.10985 14.3253 3.17621C14.1897 3.24258 14.0764 3.34723 13.9996 3.47725C13.9893 3.49455 13.983 3.51431 13.9742 3.53231C13.9604 3.56055 13.9452 3.58737 13.9346 3.61772V3.61878L13.9343 3.61949L13.9074 3.69714L13.3078 5.44349C13.305 5.45267 13.3053 5.4622 13.3025 5.47172C13.2881 5.52069 13.2784 5.57092 13.2736 5.62172C13.2714 5.64114 13.269 5.65984 13.2686 5.67925C13.2686 5.68561 13.2672 5.69196 13.2672 5.69831C13.2672 5.75161 13.2736 5.80419 13.2842 5.85608C13.2873 5.87019 13.293 5.88361 13.2969 5.89772ZM17.4806 9.24467C17.4736 9.25384 17.4651 9.26231 17.458 9.27184C17.4298 9.30996 17.404 9.3502 17.3825 9.39325C17.3673 9.42502 17.3571 9.4582 17.3465 9.49137C17.2925 9.65043 17.2925 9.8229 17.3465 9.98196C17.3582 10.0165 17.3762 10.0473 17.3924 10.079C17.4104 10.115 17.4312 10.1496 17.4545 10.1821C17.4778 10.2145 17.5011 10.2477 17.5297 10.2763V10.2767C17.6314 10.3792 17.7601 10.4509 17.9009 10.4835C18.0416 10.5161 18.1887 10.5083 18.3252 10.4609L19.5242 10.0494L20.1531 9.83443C20.3472 9.76737 20.5025 9.62972 20.5943 9.44267C20.6091 9.41196 20.619 9.37914 20.6296 9.34702C20.6825 9.18749 20.6853 9.01702 20.6296 8.85537C20.563 8.6624 20.4226 8.50367 20.2393 8.41397C20.0559 8.32427 19.8444 8.3109 19.6512 8.37678L19.2573 8.51161L17.8237 9.00184C17.6889 9.04916 17.5701 9.13328 17.4806 9.24467ZM9.90792 17.8402C9.83224 17.7706 9.74329 17.7171 9.64639 17.6828C9.50472 17.6344 9.35202 17.6283 9.20694 17.6652C9.06185 17.7021 8.93064 17.7804 8.82933 17.8907L8.82227 17.897C8.75521 17.9718 8.70192 18.0604 8.66698 18.1614L8.04051 19.9871L8.04015 19.9885C7.97663 20.1765 7.98808 20.3817 8.07211 20.5614C8.15614 20.7411 8.30627 20.8814 8.49121 20.9531C8.50109 20.9567 8.50921 20.9627 8.51909 20.9658L8.5198 20.9662C8.60098 20.9944 8.68568 21.0085 8.76686 21.0085C8.98039 21.0085 9.17909 20.9136 9.32415 20.7597C9.39756 20.6821 9.46109 20.5945 9.49815 20.4873L9.77804 19.6713L10.126 18.6618C10.2213 18.3795 10.1507 18.076 9.94251 17.8677C9.93192 17.8571 9.91886 17.8501 9.90792 17.8402ZM8.14956 16.3921C8.14956 16.2809 8.12204 16.1711 8.07298 16.0688C8.03603 15.9866 7.98476 15.9117 7.92157 15.8475C7.77689 15.7034 7.58101 15.6224 7.3768 15.6224C7.17259 15.6224 6.97671 15.7034 6.83204 15.8475L5.9638 16.7157L5.46721 17.2113C5.43721 17.2416 5.41215 17.2748 5.3878 17.3087C5.29279 17.4388 5.24151 17.5958 5.24133 17.7569V17.7583C5.24133 17.8035 5.24662 17.8476 5.25439 17.8917C5.25545 17.8974 5.25509 17.903 5.25615 17.9087C5.25792 17.9175 5.2618 17.9256 5.26392 17.9344C5.30793 18.1257 5.42397 18.2927 5.58792 18.4007C5.71604 18.4857 5.86215 18.5277 6.01074 18.5277C6.20839 18.5277 6.40604 18.4536 6.5578 18.3018L6.84968 18.0089L7.92157 16.937C7.98306 16.8744 8.03321 16.8015 8.0698 16.7217C8.12062 16.6176 8.14956 16.5064 8.14956 16.3921ZM5.90662 14.9097C5.95674 14.8585 6.00015 14.8014 6.03439 14.7368C6.03898 14.7283 6.04533 14.7205 6.04992 14.7117C6.09462 14.6209 6.12086 14.5221 6.1271 14.421C6.13334 14.32 6.11946 14.2187 6.08627 14.123C6.07251 14.0828 6.05239 14.0468 6.03298 14.0101C5.99951 13.944 5.95632 13.8833 5.90486 13.8301H5.90415L5.90309 13.8287C5.82475 13.7533 5.73127 13.6954 5.62886 13.6589C5.4623 13.5923 5.27759 13.5865 5.10721 13.6427L3.67109 14.1371L3.28145 14.2713C3.18509 14.3041 3.10039 14.3553 3.02733 14.4184C3.02486 14.4209 3.02098 14.4227 3.01815 14.4255C3.01109 14.4322 3.00545 14.4403 2.99839 14.4467C2.89276 14.5479 2.81821 14.6771 2.78351 14.8192C2.74881 14.9613 2.7554 15.1104 2.80251 15.2489C2.83532 15.3449 2.88675 15.4335 2.95384 15.5096C3.02094 15.5857 3.10239 15.6478 3.19353 15.6924C3.28467 15.737 3.38371 15.7632 3.48497 15.7694C3.58624 15.7757 3.68775 15.7619 3.78368 15.7289L4.56121 15.4607L5.60768 15.1017C5.72345 15.0622 5.82368 14.9944 5.90662 14.9097Z" fill="#333333"/>
</g>
</svg>
