<svg width="20" height="24" viewBox="0 0 20 24" fill="none" xmlns="http://www.w3.org/2000/svg">
<g id="Group">
<path id="Vector" d="M4.03686 7.14506C4.02109 7.72367 4.10875 8.42725 4.43094 9.19473C4.17654 9.57472 3.96125 9.9661 3.78502 10.3677C2.48287 10.3276 1.32445 10.903 0.924441 11.1277C0.620239 10.918 0.385083 10.632 0.223652 10.2757C0.162509 10.1403 0.11463 9.99942 0.0806885 9.85487C1.02425 9.19535 2.33142 8.96989 2.34501 8.96753C2.40896 8.95687 2.46674 8.92303 2.50732 8.87248C2.54791 8.82193 2.56845 8.7582 2.56503 8.69346C2.56154 8.62874 2.53436 8.56756 2.48866 8.52159C2.44296 8.47563 2.38194 8.44809 2.31724 8.44422C1.1702 8.37672 0.43007 7.84002 0.205233 7.65332C0.187731 6.90991 0.430408 6.36177 0.581472 6.0946C1.66983 6.66149 2.82998 7.01415 4.03686 7.14506ZM11.7155 1.67887C11.7244 1.68201 12.5383 1.96948 13.1058 2.67856C12.2334 3.24699 10.5793 4.6504 9.1377 7.72646C8.18098 9.76832 7.37865 10.8714 6.81084 11.465C5.95976 10.7219 5.34181 9.93288 4.97242 9.11695C4.97193 9.11603 4.97164 9.11507 4.97116 9.11415C4.64695 8.39731 4.51397 7.66966 4.57429 6.94496C4.57598 6.93458 4.57692 6.92409 4.57708 6.91357C4.59003 6.77042 4.61037 6.62804 4.63803 6.48699C4.76692 5.82936 5.01663 5.42265 5.0188 5.41918C5.04764 5.37348 5.06171 5.32001 5.05911 5.26604C5.05652 5.21207 5.03738 5.1602 5.00429 5.11748L3.91381 3.70718L4.84131 2.88001L5.96535 4.36423C6.00694 4.41915 6.06837 4.45561 6.1365 4.4658C6.20463 4.47599 6.27404 4.45911 6.32987 4.41877L7.47875 3.58958C7.53089 3.55198 7.56752 3.49664 7.58173 3.43394C7.59595 3.37125 7.58678 3.30552 7.55594 3.24911L6.7253 1.73177L7.87716 1.2021L8.68808 2.71926C8.71953 2.77818 8.77217 2.82297 8.83536 2.84457C8.89856 2.86618 8.9676 2.86299 9.02854 2.83565L10.2537 2.28627C10.3168 2.25795 10.3663 2.20598 10.3915 2.14155C10.4167 2.07712 10.4155 2.00537 10.3884 1.94175L9.72634 0.394609L10.8472 0L11.5619 1.54015C11.5768 1.57247 11.5981 1.60142 11.6245 1.62527C11.6509 1.64911 11.6818 1.66735 11.7155 1.67887Z" fill="#333333"/>
<path id="Vector_2" d="M19.7532 15.5473C20.0833 18.3721 19.9193 20.6833 19.279 22.2308C18.8673 23.2261 17.9024 23.9133 16.8209 23.9814C16.6216 23.9941 16.4237 24 16.2271 24C13.6361 24 11.2834 22.9551 9.72176 22.0408C7.93102 20.9927 6.40741 19.5389 5.31558 17.8365C3.44793 14.9247 3.56028 12.5595 4.25948 10.8322C4.26743 10.8174 4.27385 10.8016 4.27872 10.785C4.42279 10.4364 4.59058 10.1143 4.77058 9.81909C5.17025 10.5416 5.7476 11.2377 6.49304 11.8953C6.20133 12.1336 6.02022 12.1986 5.97259 12.2125C5.93895 12.2219 5.90752 12.2379 5.88012 12.2596C5.85271 12.2812 5.82989 12.3081 5.81297 12.3387C5.79605 12.3692 5.78537 12.4028 5.78155 12.4376C5.77773 12.4723 5.78085 12.5074 5.79072 12.5409C5.8006 12.5744 5.81703 12.6056 5.83906 12.6327C5.8611 12.6598 5.8883 12.6823 5.91909 12.6988C5.94988 12.7153 5.98364 12.7255 6.0184 12.7288C6.05317 12.7322 6.08826 12.7286 6.12162 12.7182C6.2777 12.6723 6.60804 12.5283 7.07584 12.0828C7.71819 11.4713 8.61927 10.2917 9.68458 8.01847C11.0824 5.03537 12.6645 3.704 13.4831 3.17573C13.54 3.13907 13.5996 3.10705 13.6616 3.07997C14.1325 2.87374 14.695 2.97027 15.0631 3.33933C15.0758 3.35215 15.0881 3.36513 15.1003 3.3779C15.4059 3.7026 15.5161 4.17556 15.3878 4.61241C15.2598 5.04694 15.0773 5.44661 14.8578 5.82676C14.8488 5.83933 14.8409 5.85273 14.8344 5.86678C14.4677 6.49254 14.0022 7.06709 13.5205 7.66205C12.9853 8.32267 12.4385 8.99781 12.0288 9.76374C12.0222 9.77419 12.0164 9.7851 12.0113 9.79638C12.0112 9.79667 12.0112 9.79686 12.011 9.79701C11.7996 10.1972 11.6259 10.6223 11.511 11.0832C11.2165 12.2636 11.6206 13.344 12.0112 14.3887C12.3991 15.4258 12.7654 16.4054 12.5057 17.4827C12.4964 17.5215 12.496 17.5619 12.5045 17.6009C12.5131 17.6399 12.5303 17.6764 12.555 17.7077C12.5797 17.7391 12.6112 17.7644 12.647 17.7818C12.6829 17.7992 12.7223 17.8083 12.7622 17.8083C12.8214 17.8083 12.8788 17.7883 12.9253 17.7517C12.9718 17.7151 13.0046 17.6638 13.0184 17.6063C13.3159 16.3721 12.9037 15.2699 12.5051 14.204C12.1259 13.1901 11.7678 12.2325 12.0226 11.2111C12.1115 10.8545 12.2386 10.5217 12.3939 10.2042C13.5316 10.4586 15.0088 11.0111 15.9677 12.2099C15.9924 12.2409 16.0238 12.2659 16.0595 12.283C16.0952 12.3001 16.1343 12.3089 16.1739 12.3088C16.2236 12.3088 16.2722 12.2947 16.3142 12.2683C16.3562 12.2419 16.3899 12.2041 16.4114 12.1594C16.4329 12.1146 16.4413 12.0647 16.4357 12.0154C16.4301 11.9661 16.4107 11.9193 16.3797 11.8806C15.8705 11.2439 15.1831 10.716 14.3367 10.3114C13.8227 10.0656 13.2588 9.86842 12.656 9.72372C13.0152 9.1237 13.4655 8.56795 13.9302 7.99422C14.3653 7.45688 14.8087 6.90952 15.1806 6.31095C15.9065 6.64018 16.887 7.34174 17.7767 8.83512C18.7607 10.4875 19.4257 12.7458 19.7532 15.5473ZM16.4884 21.8447C16.4884 21.7748 16.4606 21.7077 16.4111 21.6583C16.3617 21.6088 16.2946 21.581 16.2247 21.581C14.1588 21.581 12.2125 20.6957 10.9435 19.953C9.48067 19.0968 8.2387 17.9134 7.35179 16.5304C7.3331 16.5013 7.30885 16.4761 7.28042 16.4563C7.25198 16.4365 7.21993 16.4225 7.18609 16.4151C7.15224 16.4077 7.11728 16.4071 7.08319 16.4132C7.04909 16.4194 7.01655 16.4322 6.98741 16.4509C6.95824 16.4696 6.93305 16.4939 6.91326 16.5223C6.89348 16.5507 6.87949 16.5828 6.87211 16.6166C6.86472 16.6505 6.86408 16.6854 6.87022 16.7195C6.87637 16.7536 6.88917 16.7862 6.9079 16.8153C7.8396 18.2678 9.14286 19.5103 10.6772 20.4081C12.0025 21.1838 14.0405 22.1083 16.2247 22.1083C16.2593 22.1084 16.2936 22.1016 16.3256 22.0884C16.3576 22.0751 16.3867 22.0557 16.4112 22.0312C16.4357 22.0068 16.4551 21.9777 16.4684 21.9457C16.4816 21.9137 16.4884 21.8794 16.4884 21.8447Z" fill="#333333"/>
</g>
</svg>
