<svg width="24" height="22" viewBox="0 0 24 22" fill="none" xmlns="http://www.w3.org/2000/svg">
<g id="Group">
<path id="Vector" d="M21.1494 13.849C20.3729 14.391 19.3379 14.7834 18.3814 14.8989C16.2492 15.1583 14.9225 14.071 14.6524 12.2767C14.6105 11.9983 14.8594 11.766 15.1347 11.8252C15.7128 11.9495 16.3196 11.9973 16.9264 11.963C16.85 12.415 16.991 12.877 17.3019 13.2164C17.4525 13.3804 17.7051 13.3901 17.8669 13.2409C18.0299 13.0914 18.0409 12.8384 17.8914 12.6759C17.6919 12.4585 17.6411 12.1407 17.8024 11.856C18.1609 11.788 18.4674 11.6995 18.7124 11.6145C18.9214 11.542 19.0319 11.3145 18.9594 11.1055C18.8874 10.897 18.6594 10.7865 18.4504 10.8585C17.3553 11.239 16.1082 11.2745 14.9938 10.9675C14.7917 10.9118 14.669 10.7081 14.7095 10.5023C14.8988 9.53966 15.2318 9.19161 15.322 8.23848C14.142 9.06497 13.484 10.3529 13.488 11.8804V21.1252C13.4885 21.3462 13.322 21.5257 13.101 21.5262C13.0485 21.5263 12.9965 21.5161 12.9479 21.4961C12.8993 21.4762 12.8551 21.4468 12.8179 21.4098C12.7807 21.3727 12.7511 21.3287 12.7309 21.2802C12.7106 21.2317 12.7002 21.1797 12.7 21.1272C12.6984 20.4589 12.6772 12.3436 12.676 11.8824C12.6704 9.68235 13.847 7.90984 15.831 7.03851C15.9431 7.09451 17.7469 7.38085 18.5419 9.24596C18.5727 9.31808 18.624 9.37957 18.6894 9.42277C18.7548 9.46597 18.8315 9.48899 18.9099 9.48896C19.1963 9.48896 19.3901 9.19531 19.2779 8.93197C19.1989 8.74703 19.1079 8.56748 19.0054 8.39448C19.3734 8.28823 19.6807 8.07194 19.8959 7.79049C20.4818 7.91484 21.1062 7.75139 21.5613 7.331C21.7233 7.18101 21.7338 6.92801 21.5839 6.76601C21.5119 6.68805 21.4119 6.64183 21.3059 6.63752C21.1998 6.63321 21.0964 6.67115 21.0184 6.74301C20.8184 6.92896 20.5346 7.04496 20.2294 7.02901C20.2899 6.70851 20.2569 6.45352 20.2489 6.40252C20.2159 6.18453 20.0119 6.03503 19.7944 6.06803C19.5764 6.10053 19.4259 6.30452 19.4584 6.52252C19.4614 6.54552 19.5364 7.08601 19.1389 7.4335C18.9029 7.64 18.6264 7.67199 18.4709 7.67049C18.0527 7.20985 17.5279 6.82666 16.9029 6.55752C17.2082 6.32857 17.4594 5.96733 17.5694 5.49504C17.6212 5.2614 17.4563 5.01795 17.1729 5.01605C16.9869 5.0148 16.8284 5.14305 16.7854 5.32404C16.723 5.58904 16.562 5.92253 16.152 6.05853C15.9246 6.13401 15.7012 6.22073 15.4824 6.31837C15.2949 6.40227 15.0753 6.31712 14.996 6.12763C13.7363 3.11794 15.1044 0.0676533 18.6164 0.518094C19.7214 0.660091 20.8754 1.13958 21.7033 1.80007C25.0499 4.46971 24.6315 11.4178 21.1494 13.849ZM11.3241 11.8825C11.3229 12.3437 11.3017 20.459 11.3001 21.1273C11.2999 21.1798 11.2895 21.2318 11.2692 21.2803C11.249 21.3288 11.2194 21.3728 11.1822 21.4099C11.145 21.4469 11.1008 21.4763 11.0522 21.4962C11.0036 21.5162 10.9516 21.5264 10.8991 21.5263C10.6781 21.5258 10.5116 21.3463 10.5121 21.1253V11.8805C10.5161 10.353 9.85809 9.06507 8.67812 8.23858C8.76932 9.20291 9.10576 9.54096 9.29471 10.5232C9.33391 10.727 9.20816 10.9274 9.00796 10.9819C7.89378 11.2853 6.65891 11.2302 5.56213 10.8085C5.35614 10.729 5.12464 10.832 5.04514 11.038C4.96565 11.244 5.06864 11.4755 5.27464 11.555C5.52013 11.6495 5.82463 11.748 6.17912 11.826C6.35802 12.109 6.32112 12.4444 6.10862 12.676C5.95913 12.8385 5.97013 13.0915 6.13312 13.241C6.29507 13.3902 6.54776 13.3802 6.69811 13.2165C7.0036 12.883 7.15225 12.4233 7.0726 11.956C7.67409 12.0008 8.28048 11.9609 8.86386 11.8386C9.14021 11.7806 9.38755 12.0156 9.34335 12.2944C9.23296 12.9907 8.95326 13.6481 8.44507 14.137C7.0418 15.489 4.41236 14.939 2.85069 13.849C-0.631437 11.4178 -1.04983 4.46976 2.2967 1.80027C3.99447 0.445945 7.0195 -0.171592 8.53957 1.42677C9.56505 2.50525 9.74805 4.34921 9.00556 6.12418C8.92161 6.32482 8.69897 6.39972 8.51757 6.31852C8.29887 6.22088 8.07545 6.13416 7.84814 6.05868C7.43814 5.92268 7.27715 5.58919 7.21465 5.32419C7.17165 5.1432 7.01315 5.01495 6.82716 5.0162C6.54496 5.0181 6.37857 5.2604 6.43067 5.49519C6.54141 5.97058 6.78966 6.33047 7.10865 6.56617C6.50911 6.81696 5.96978 7.1886 5.52968 7.67064C5.37469 7.67214 5.09769 7.64065 4.8612 7.43365C4.46371 7.08616 4.53871 6.54567 4.54171 6.52317C4.54966 6.47123 4.54731 6.41823 4.53478 6.3672C4.52225 6.31617 4.49979 6.26812 4.46868 6.22577C4.43757 6.18342 4.39842 6.14762 4.35347 6.12041C4.30853 6.0932 4.25865 6.07511 4.20671 6.06718C3.98822 6.03468 3.78422 6.18418 3.75122 6.40267C3.74322 6.45367 3.71022 6.70866 3.77072 7.02916C3.46723 7.04506 3.18253 6.92996 2.98174 6.74316C2.90366 6.6713 2.80026 6.63336 2.69424 6.63767C2.58821 6.64198 2.48823 6.6882 2.41625 6.76616C2.26625 6.92816 2.27675 7.18116 2.43875 7.33115C2.89804 7.75529 3.52563 7.91394 4.10421 7.79064C4.31461 8.06584 4.619 8.28598 4.9937 8.39413C4.89115 8.56755 4.80028 8.74761 4.7217 8.93312C4.6357 9.13661 4.7312 9.37161 4.9342 9.45761C5.13564 9.54246 5.37184 9.45066 5.45869 9.24461C5.93278 8.12324 6.90696 7.3332 8.18113 7.06816C8.21578 7.06056 8.21063 7.05916 8.21563 7.05916C10.1804 7.94294 11.3296 9.7083 11.3241 11.8825Z" fill="#333333"/>
</g>
</svg>
