<svg width="20" height="24" viewBox="0 0 20 24" fill="none" xmlns="http://www.w3.org/2000/svg">
<g id="Group">
<path id="Vector" d="M3.05831 17.7659C3.07683 17.9878 3.09211 18.2084 3.10445 18.4224C3.13794 19.0025 3.1509 19.5323 3.15474 19.904C3.00658 19.9347 2.87355 20.0156 2.77804 20.1329C2.68254 20.2503 2.63039 20.397 2.63038 20.5483C2.63038 20.7228 2.69968 20.8901 2.82303 21.0134C2.94637 21.1367 3.11367 21.206 3.28811 21.206C3.46255 21.206 3.62984 21.1367 3.75319 21.0134C3.87653 20.8901 3.94583 20.7228 3.94583 20.5483C3.94578 20.4036 3.89797 20.2629 3.80982 20.1481C3.72168 20.0334 3.59812 19.9509 3.45831 19.9135C3.45476 19.5613 3.44323 19.0659 3.41378 18.5179C3.40245 18.3078 3.38849 18.0904 3.37118 17.8699C3.26631 17.837 3.162 17.8023 3.05831 17.7659ZM6.67831 18.4196C5.79696 18.3997 4.93039 18.2698 4.17603 18.091V22.749C4.17603 23.4401 4.73631 24 5.42702 24C5.9614 24 6.41634 23.6644 6.59574 23.1928C6.65005 23.0511 6.67799 22.9006 6.67821 22.7489L6.67831 18.4196ZM7.14732 22.749C7.14732 23.4401 7.7076 24 8.39831 24C9.08922 24 9.6495 23.4401 9.6495 22.749V18.091C8.89534 18.2697 8.02857 18.3996 7.14722 18.4196L7.14732 22.749ZM2.61662 13.2725C2.7506 13.2979 2.8789 13.3193 2.99304 13.3369C3.34467 10.4526 3.85102 7.66353 3.85102 7.66353H4.09336C3.90181 8.86282 3.05203 14.3548 3.05203 17.3776C3.92893 17.7823 5.41316 18.1871 6.91277 18.1871C8.41237 18.1871 9.8964 17.7823 10.7735 17.3776C10.7735 14.621 10.0668 9.81105 9.79703 8.07557C9.85932 8.1398 9.92277 8.20289 9.98737 8.26479C10.2441 8.51004 10.519 8.73562 10.8096 8.93962C11.595 9.49322 12.6141 9.97872 13.8878 10.2067C14.1001 9.45922 14.7417 8.89216 15.5288 8.78945C15.4356 8.74874 15.3355 8.72605 15.2339 8.72257C13.1903 8.6488 11.9186 7.86055 11.1039 7.09233C10.6996 6.70761 10.4181 6.32552 10.2417 6.04655C10.174 5.9403 10.1113 5.83104 10.0535 5.7191C10.0373 5.68774 10.0219 5.65596 10.0073 5.62378C9.94558 5.47716 9.8419 5.35204 9.70928 5.26417C9.57667 5.17629 9.42104 5.12957 9.26195 5.12988H8.93299C8.92165 5.12988 8.91052 5.1311 8.89939 5.1316C8.88887 5.1312 8.87835 5.12999 8.86772 5.12999H8.19583C8.18581 5.83334 7.82194 6.81315 7.48377 7.5751L7.32035 6.37096C7.18931 6.42013 7.0515 6.44584 6.91347 6.44584H6.91266C6.77348 6.44555 6.63549 6.42022 6.50528 6.37106L6.34196 7.57489C6.00389 6.81305 5.63992 5.83324 5.63 5.12999H4.95832C4.90034 5.12999 4.84408 5.13677 4.78964 5.14871C4.64018 5.17228 4.42283 5.23067 4.1731 5.37172C3.61585 5.68257 2.96522 6.36559 2.47223 7.71069C2.04592 8.8701 1.71241 10.5343 1.6095 12.991C1.85559 13.106 2.25751 13.2063 2.61662 13.2725ZM5.83936 15.0883L4.03498 14.8397L4.09033 14.4389L5.89471 14.6873L5.83936 15.0883ZM7.98607 15.0883L7.93072 14.6873L9.73511 14.4389L9.79045 14.8397L7.98607 15.0883Z" fill="#333333"/>
<path id="Vector_2" d="M7.48948 5.89758L7.29722 5.13867H7.26161C7.14706 5.15253 7.0309 5.16053 6.91281 5.16053C6.79472 5.16053 6.67856 5.15253 6.56402 5.13867H6.5282L6.33594 5.89758L6.36548 5.94413C6.51902 6.07223 6.71266 6.14235 6.91261 6.14226C7.11278 6.14234 7.30662 6.07206 7.46024 5.94372L7.48948 5.89758Z" fill="#333333"/>
<path id="Vector_3" d="M6.91272 4.55346C8.17012 4.55346 9.18945 3.53414 9.18945 2.27673C9.18945 1.01933 8.17012 0 6.91272 0C5.65531 0 4.63599 1.01933 4.63599 2.27673C4.63599 3.53414 5.65531 4.55346 6.91272 4.55346Z" fill="#333333"/>
<path id="Vector_4" d="M1.19856 17.1526C0.918881 17.7399 0.902893 18.8725 0.899048 19.6264C0.89925 19.8441 0.901578 20.0285 0.901578 20.1518H1.20514C1.20514 20.0247 1.20271 19.8422 1.20271 19.6264C1.20271 19.1329 1.21587 18.4655 1.29783 17.9332C1.3382 17.6678 1.3975 17.4357 1.47127 17.2859C1.54959 17.1305 1.61647 17.0893 1.67324 17.091C1.7298 17.0892 1.79638 17.1305 1.8747 17.2859C1.95697 17.4493 2.01495 17.7007 2.05563 17.9889L2.06018 18.0196C2.13 18.5347 2.14589 19.1621 2.14336 19.6265C2.14356 19.8422 2.14123 20.0249 2.14123 20.1519H2.4446C2.4446 20.0282 2.44692 19.8442 2.44712 19.6265C2.44692 19.2037 2.43751 18.6547 2.38257 18.1545C2.373 18.0652 2.36156 17.9761 2.34826 17.8873C2.30445 17.6051 2.24414 17.3514 2.14761 17.1528C2.12467 17.104 2.09741 17.0573 2.06615 17.0133C1.99866 16.9193 1.91113 16.8445 1.80286 16.8095C1.77119 16.5425 1.75308 16.2755 1.75338 16.0268C1.75267 15.6592 1.79304 15.3309 1.8741 15.1135C1.89949 15.0488 1.9253 14.9978 1.95201 14.9562C2.02673 15.004 2.10886 15.0392 2.19507 15.0602C2.2557 15.0752 2.31788 15.0832 2.38034 15.0839H2.38712C2.42284 15.0839 2.45765 15.0809 2.49215 15.0764C2.58606 15.235 2.67358 15.4631 2.74745 15.7357C2.76567 15.5023 2.78621 15.2643 2.80887 15.0228C2.80128 15.0078 2.79329 14.9932 2.7854 14.9786C2.79552 14.9729 2.80513 14.9669 2.81494 14.9607C2.85947 14.4937 2.91168 14.0153 2.96855 13.5378C2.83834 13.5178 2.70847 13.4957 2.57897 13.4716C2.24252 13.4067 1.87693 13.3234 1.60069 13.2078C1.58818 13.561 1.58046 13.9143 1.57751 14.2677C1.57606 14.4387 1.62915 14.6058 1.72909 14.7446C1.66887 14.8245 1.62167 14.9134 1.58925 15.0081C1.48837 15.2839 1.45012 15.6377 1.44951 16.0268C1.44971 16.2834 1.46783 16.555 1.49909 16.8258C1.3638 16.8869 1.26474 17.0133 1.19856 17.1526Z" fill="#333333"/>
<path id="Vector_5" d="M15.7846 12.5152C16.7626 12.5152 17.5554 11.7224 17.5554 10.7444C17.5554 9.76644 16.7626 8.97363 15.7846 8.97363C14.8066 8.97363 14.0138 9.76644 14.0138 10.7444C14.0138 11.7224 14.8066 12.5152 15.7846 12.5152Z" fill="#333333"/>
<path id="Vector_6" d="M14.0138 17.9062V23.1904C14.0138 23.4051 14.0991 23.611 14.2509 23.7628C14.4027 23.9146 14.6086 23.9999 14.8233 23.9999C15.038 23.9999 15.2439 23.9146 15.3957 23.7628C15.5475 23.611 15.6328 23.4051 15.6328 23.1904V19.7677H15.9364V23.1904C15.9364 23.4051 16.0217 23.611 16.1735 23.7628C16.3253 23.9146 16.5312 23.9999 16.7459 23.9999C16.9606 23.9999 17.1665 23.9146 17.3183 23.7628C17.4701 23.611 17.5554 23.4051 17.5554 23.1904V17.9062H14.0138Z" fill="#333333"/>
<path id="Vector_7" d="M18.5276 19.1267L18.54 19.1269C18.6855 19.1268 18.8251 19.0698 18.9291 18.9681C19.033 18.8664 19.093 18.728 19.0963 18.5826C19.0993 18.4342 19.101 18.2901 19.101 18.1498C19.1004 16.0214 18.7329 14.7737 18.3097 14.0238C17.8894 13.2732 17.3954 13.0494 17.2804 13.0161C17.2562 13.0083 17.2314 13.0022 17.2063 12.9978C17.1559 12.9804 17.103 12.9711 17.0496 12.9705H14.5199C14.4645 12.9705 14.4121 12.9815 14.3621 12.998C14.3373 13.0024 14.3129 13.0085 14.289 13.0162L14.2887 13.016C14.1739 13.0493 13.6799 13.2731 13.2597 14.0237C12.8363 14.7737 12.4688 16.0212 12.4681 18.1497C12.4681 18.2895 12.4698 18.4341 12.4732 18.584C12.4768 18.7291 12.5369 18.8671 12.6408 18.9685C12.7447 19.0699 12.884 19.1268 13.0292 19.1268L13.0433 19.1267C13.1909 19.1231 13.331 19.061 13.4327 18.954C13.5345 18.8471 13.5897 18.7041 13.5861 18.5565C13.5827 18.4209 13.5811 18.2853 13.5811 18.1497C13.5807 16.6215 13.7854 15.6464 14.0139 15.0385V17.666H17.5555V15.0384C17.7839 15.6458 17.9883 16.6224 17.9878 18.1497C17.9878 18.2814 17.9863 18.4174 17.9833 18.5581C17.9801 18.7057 18.0356 18.8485 18.1377 18.9551C18.2397 19.0618 18.38 19.1235 18.5276 19.1267Z" fill="#333333"/>
</g>
</svg>
